<svg xmlns="http://www.w3.org/2000/svg" viewBox="0 0 100 100" fill="none" stroke="#000" stroke-linecap="round" stroke-linejoin="round">
  <!-- hexagon container, solid, fill; 0 none motifs -->
  <defs><clipPath id="shapeClip"><path d="M 70.00 15.36 L 90.00 50.00 L 70.00 84.64 L 30.00 84.64 L 10.00 50.00 L 30.00 15.36 Z"/></clipPath></defs>
  <path d="M 70.00 15.36 L 90.00 50.00 L 70.00 84.64 L 30.00 84.64 L 10.00 50.00 L 30.00 15.36 Z" fill="none" stroke-width="2"  />
  <g clip-path="url(#shapeClip)">
  <path d="M 70.00 15.36 L 90.00 50.00 L 75.36 75.36 L 24.64 24.64 L 30.00 15.36 Z" fill="#808080" stroke="none"/>
  <path d="M 75.36 75.36 L 70.00 84.64 L 30.00 84.64 L 10.00 50.00 L 24.64 24.64 Z" fill="none" stroke="none"/>
  </g>
  <path d="M 70.00 15.36 L 90.00 50.00 L 70.00 84.64 L 30.00 84.64 L 10.00 50.00 L 30.00 15.36 Z" fill="none" stroke-width="2"  />
  <g clip-path="url(#shapeClip)">
  <line x1="15.36" y1="15.36" x2="84.64" y2="84.64" stroke="#000" stroke-width="0.8" stroke-linecap="round"/>
  </g>
</svg>