<svg xmlns="http://www.w3.org/2000/svg" viewBox="0 0 100 100" fill="none" stroke="#000" stroke-linecap="round" stroke-linejoin="round">
  <!-- octagon container, solid, fill; 0 none motifs -->
  <defs><clipPath id="shapeClip"><path d="M 65.31 13.04 L 86.96 34.69 L 86.96 65.31 L 65.31 86.96 L 34.69 86.96 L 13.04 65.31 L 13.04 34.69 L 34.69 13.04 Z"/></clipPath></defs>
  <defs><clipPath id="shapeClip_sec2" clip-rule="evenodd"><path d="M 58.42 29.67 L 70.33 41.58 L 70.33 58.42 L 58.42 70.33 L 41.58 70.33 L 29.67 58.42 L 29.67 41.58 L 41.58 29.67 Z M 56.89 33.37 L 66.63 43.11 L 66.63 56.89 L 56.89 66.63 L 43.11 66.63 L 33.37 56.89 L 33.37 43.11 L 43.11 33.37 Z"/></clipPath></defs>
  <path d="M 65.31 13.04 L 86.96 34.69 L 86.96 65.31 L 65.31 86.96 L 34.69 86.96 L 13.04 65.31 L 13.04 34.69 L 34.69 13.04 Z" fill="none" stroke-width="2"  />
  <g clip-path="url(#shapeClip)">
  <path d="M 55.36 37.07 L 62.93 44.64 L 62.93 55.36 L 55.36 62.93 L 44.64 62.93 L 37.07 55.36 L 37.07 44.64 L 44.64 37.07 Z" fill="none" stroke="none" fill-rule="evenodd"/>
  <path d="M 56.89 33.37 L 66.63 43.11 L 66.63 56.89 L 56.89 66.63 L 43.11 66.63 L 33.37 56.89 L 33.37 43.11 L 43.11 33.37 Z M 55.36 37.07 L 62.93 44.64 L 62.93 55.36 L 55.36 62.93 L 44.64 62.93 L 37.07 55.36 L 37.07 44.64 L 44.64 37.07 Z" fill="#808080" stroke="none" fill-rule="evenodd"/>
  <g clip-path="url(#shapeClip_sec2)" fill="none">
    <line x1="0.00" y1="0.00" x2="0.00" y2="100.00" stroke="#000" stroke-width="0.8" stroke-linecap="round"/>
    <line x1="2.00" y1="0.00" x2="2.00" y2="100.00" stroke="#000" stroke-width="0.8" stroke-linecap="round"/>
    <line x1="4.00" y1="0.00" x2="4.00" y2="100.00" stroke="#000" stroke-width="0.8" stroke-linecap="round"/>
    <line x1="6.00" y1="0.00" x2="6.00" y2="100.00" stroke="#000" stroke-width="0.8" stroke-linecap="round"/>
    <line x1="8.00" y1="0.00" x2="8.00" y2="100.00" stroke="#000" stroke-width="0.8" stroke-linecap="round"/>
    <line x1="10.00" y1="0.00" x2="10.00" y2="100.00" stroke="#000" stroke-width="0.8" stroke-linecap="round"/>
    <line x1="12.00" y1="0.00" x2="12.00" y2="100.00" stroke="#000" stroke-width="0.8" stroke-linecap="round"/>
    <line x1="14.00" y1="0.00" x2="14.00" y2="100.00" stroke="#000" stroke-width="0.8" stroke-linecap="round"/>
    <line x1="16.00" y1="0.00" x2="16.00" y2="100.00" stroke="#000" stroke-width="0.8" stroke-linecap="round"/>
    <line x1="18.00" y1="0.00" x2="18.00" y2="100.00" stroke="#000" stroke-width="0.8" stroke-linecap="round"/>
    <line x1="20.00" y1="0.00" x2="20.00" y2="100.00" stroke="#000" stroke-width="0.8" stroke-linecap="round"/>
    <line x1="22.00" y1="0.00" x2="22.00" y2="100.00" stroke="#000" stroke-width="0.8" stroke-linecap="round"/>
    <line x1="24.00" y1="0.00" x2="24.00" y2="100.00" stroke="#000" stroke-width="0.8" stroke-linecap="round"/>
    <line x1="26.00" y1="0.00" x2="26.00" y2="100.00" stroke="#000" stroke-width="0.8" stroke-linecap="round"/>
    <line x1="28.00" y1="0.00" x2="28.00" y2="100.00" stroke="#000" stroke-width="0.8" stroke-linecap="round"/>
    <line x1="30.00" y1="0.00" x2="30.00" y2="100.00" stroke="#000" stroke-width="0.8" stroke-linecap="round"/>
    <line x1="32.00" y1="0.00" x2="32.00" y2="100.00" stroke="#000" stroke-width="0.8" stroke-linecap="round"/>
    <line x1="34.00" y1="0.00" x2="34.00" y2="100.00" stroke="#000" stroke-width="0.8" stroke-linecap="round"/>
    <line x1="36.00" y1="0.00" x2="36.00" y2="100.00" stroke="#000" stroke-width="0.8" stroke-linecap="round"/>
    <line x1="38.00" y1="0.00" x2="38.00" y2="100.00" stroke="#000" stroke-width="0.8" stroke-linecap="round"/>
    <line x1="40.00" y1="0.00" x2="40.00" y2="100.00" stroke="#000" stroke-width="0.8" stroke-linecap="round"/>
    <line x1="42.00" y1="0.00" x2="42.00" y2="100.00" stroke="#000" stroke-width="0.8" stroke-linecap="round"/>
    <line x1="44.00" y1="0.00" x2="44.00" y2="100.00" stroke="#000" stroke-width="0.8" stroke-linecap="round"/>
    <line x1="46.00" y1="0.00" x2="46.00" y2="100.00" stroke="#000" stroke-width="0.8" stroke-linecap="round"/>
    <line x1="48.00" y1="0.00" x2="48.00" y2="100.00" stroke="#000" stroke-width="0.8" stroke-linecap="round"/>
    <line x1="50.00" y1="0.00" x2="50.00" y2="100.00" stroke="#000" stroke-width="0.8" stroke-linecap="round"/>
    <line x1="52.00" y1="0.00" x2="52.00" y2="100.00" stroke="#000" stroke-width="0.8" stroke-linecap="round"/>
    <line x1="54.00" y1="0.00" x2="54.00" y2="100.00" stroke="#000" stroke-width="0.8" stroke-linecap="round"/>
    <line x1="56.00" y1="0.00" x2="56.00" y2="100.00" stroke="#000" stroke-width="0.8" stroke-linecap="round"/>
    <line x1="58.00" y1="0.00" x2="58.00" y2="100.00" stroke="#000" stroke-width="0.8" stroke-linecap="round"/>
    <line x1="60.00" y1="0.00" x2="60.00" y2="100.00" stroke="#000" stroke-width="0.8" stroke-linecap="round"/>
    <line x1="62.00" y1="0.00" x2="62.00" y2="100.00" stroke="#000" stroke-width="0.8" stroke-linecap="round"/>
    <line x1="64.00" y1="0.00" x2="64.00" y2="100.00" stroke="#000" stroke-width="0.8" stroke-linecap="round"/>
    <line x1="66.00" y1="0.00" x2="66.00" y2="100.00" stroke="#000" stroke-width="0.8" stroke-linecap="round"/>
    <line x1="68.00" y1="0.00" x2="68.00" y2="100.00" stroke="#000" stroke-width="0.8" stroke-linecap="round"/>
    <line x1="70.00" y1="0.00" x2="70.00" y2="100.00" stroke="#000" stroke-width="0.8" stroke-linecap="round"/>
    <line x1="72.00" y1="0.00" x2="72.00" y2="100.00" stroke="#000" stroke-width="0.8" stroke-linecap="round"/>
    <line x1="74.00" y1="0.00" x2="74.00" y2="100.00" stroke="#000" stroke-width="0.8" stroke-linecap="round"/>
    <line x1="76.00" y1="0.00" x2="76.00" y2="100.00" stroke="#000" stroke-width="0.8" stroke-linecap="round"/>
    <line x1="78.00" y1="0.00" x2="78.00" y2="100.00" stroke="#000" stroke-width="0.8" stroke-linecap="round"/>
    <line x1="80.00" y1="0.00" x2="80.00" y2="100.00" stroke="#000" stroke-width="0.8" stroke-linecap="round"/>
    <line x1="82.00" y1="0.00" x2="82.00" y2="100.00" stroke="#000" stroke-width="0.8" stroke-linecap="round"/>
    <line x1="84.00" y1="0.00" x2="84.00" y2="100.00" stroke="#000" stroke-width="0.8" stroke-linecap="round"/>
    <line x1="86.00" y1="0.00" x2="86.00" y2="100.00" stroke="#000" stroke-width="0.8" stroke-linecap="round"/>
    <line x1="88.00" y1="0.00" x2="88.00" y2="100.00" stroke="#000" stroke-width="0.8" stroke-linecap="round"/>
    <line x1="90.00" y1="0.00" x2="90.00" y2="100.00" stroke="#000" stroke-width="0.8" stroke-linecap="round"/>
    <line x1="92.00" y1="0.00" x2="92.00" y2="100.00" stroke="#000" stroke-width="0.8" stroke-linecap="round"/>
    <line x1="94.00" y1="0.00" x2="94.00" y2="100.00" stroke="#000" stroke-width="0.8" stroke-linecap="round"/>
    <line x1="96.00" y1="0.00" x2="96.00" y2="100.00" stroke="#000" stroke-width="0.8" stroke-linecap="round"/>
    <line x1="98.00" y1="0.00" x2="98.00" y2="100.00" stroke="#000" stroke-width="0.8" stroke-linecap="round"/>
    <line x1="100.00" y1="0.00" x2="100.00" y2="100.00" stroke="#000" stroke-width="0.8" stroke-linecap="round"/>
  </g>
  <path d="M 65.31 13.04 L 86.96 34.69 L 86.96 65.31 L 65.31 86.96 L 34.69 86.96 L 13.04 65.31 L 13.04 34.69 L 34.69 13.04 Z M 58.42 29.67 L 70.33 41.58 L 70.33 58.42 L 58.42 70.33 L 41.58 70.33 L 29.67 58.42 L 29.67 41.58 L 41.58 29.67 Z" fill="#808080" stroke="none" fill-rule="evenodd"/>
  </g>
  <path d="M 65.31 13.04 L 86.96 34.69 L 86.96 65.31 L 65.31 86.96 L 34.69 86.96 L 13.04 65.31 L 13.04 34.69 L 34.69 13.04 Z" fill="none" stroke-width="2"  />
  <g clip-path="url(#shapeClip)">
  <line x1="55.36" y1="37.07" x2="62.93" y2="44.64" stroke="#000" stroke-width="0.8" stroke-linecap="round"/>
  <line x1="62.93" y1="44.64" x2="62.93" y2="55.36" stroke="#000" stroke-width="0.8" stroke-linecap="round"/>
  <line x1="62.93" y1="55.36" x2="55.36" y2="62.93" stroke="#000" stroke-width="0.8" stroke-linecap="round"/>
  <line x1="55.36" y1="62.93" x2="44.64" y2="62.93" stroke="#000" stroke-width="0.8" stroke-linecap="round"/>
  <line x1="44.64" y1="62.93" x2="37.07" y2="55.36" stroke="#000" stroke-width="0.8" stroke-linecap="round"/>
  <line x1="37.07" y1="55.36" x2="37.07" y2="44.64" stroke="#000" stroke-width="0.8" stroke-linecap="round"/>
  <line x1="37.07" y1="44.64" x2="44.64" y2="37.07" stroke="#000" stroke-width="0.8" stroke-linecap="round"/>
  <line x1="44.64" y1="37.07" x2="55.36" y2="37.07" stroke="#000" stroke-width="0.8" stroke-linecap="round"/>
  <line x1="56.89" y1="33.37" x2="66.63" y2="43.11" stroke="#000" stroke-width="0.8" stroke-linecap="round"/>
  <line x1="66.63" y1="43.11" x2="66.63" y2="56.89" stroke="#000" stroke-width="0.8" stroke-linecap="round"/>
  <line x1="66.63" y1="56.89" x2="56.89" y2="66.63" stroke="#000" stroke-width="0.8" stroke-linecap="round"/>
  <line x1="56.89" y1="66.63" x2="43.11" y2="66.63" stroke="#000" stroke-width="0.8" stroke-linecap="round"/>
  <line x1="43.11" y1="66.63" x2="33.37" y2="56.89" stroke="#000" stroke-width="0.8" stroke-linecap="round"/>
  <line x1="33.37" y1="56.89" x2="33.37" y2="43.11" stroke="#000" stroke-width="0.8" stroke-linecap="round"/>
  <line x1="33.37" y1="43.11" x2="43.11" y2="33.37" stroke="#000" stroke-width="0.8" stroke-linecap="round"/>
  <line x1="43.11" y1="33.37" x2="56.89" y2="33.37" stroke="#000" stroke-width="0.8" stroke-linecap="round"/>
  <line x1="58.42" y1="29.67" x2="70.33" y2="41.58" stroke="#000" stroke-width="0.8" stroke-linecap="round"/>
  <line x1="70.33" y1="41.58" x2="70.33" y2="58.42" stroke="#000" stroke-width="0.8" stroke-linecap="round"/>
  <line x1="70.33" y1="58.42" x2="58.42" y2="70.33" stroke="#000" stroke-width="0.8" stroke-linecap="round"/>
  <line x1="58.42" y1="70.33" x2="41.58" y2="70.33" stroke="#000" stroke-width="0.8" stroke-linecap="round"/>
  <line x1="41.58" y1="70.33" x2="29.67" y2="58.42" stroke="#000" stroke-width="0.8" stroke-linecap="round"/>
  <line x1="29.67" y1="58.42" x2="29.67" y2="41.58" stroke="#000" stroke-width="0.8" stroke-linecap="round"/>
  <line x1="29.67" y1="41.58" x2="41.58" y2="29.67" stroke="#000" stroke-width="0.8" stroke-linecap="round"/>
  <line x1="41.58" y1="29.67" x2="58.42" y2="29.67" stroke="#000" stroke-width="0.8" stroke-linecap="round"/>
  </g>
</svg>