<svg xmlns="http://www.w3.org/2000/svg" viewBox="0 0 100 100" fill="none" stroke="#000" stroke-linecap="round" stroke-linejoin="round">
  <!-- circle container, solid, fill; 0 none motifs -->
  <defs><clipPath id="shapeClip"><path d="M 50 15.0 A 35.0 35.0 0 0 1 50 85.0 A 35.0 35.0 0 0 1 50 15.0 Z"/></clipPath></defs>
  <path d="M 50 15.0 A 35.0 35.0 0 0 1 50 85.0 A 35.0 35.0 0 0 1 50 15.0 Z" fill="none" stroke-width="2"  />
  <g clip-path="url(#shapeClip)">
  <g clip-path="url(#shapeClip)"><rect x="0" y="15.00" width="100" height="35.00" fill="none" stroke="none"/></g>
  <g clip-path="url(#shapeClip)"><rect x="0" y="50.00" width="100" height="35.00" fill="#808080" stroke="none"/></g>
  </g>
  <path d="M 50 15.0 A 35.0 35.0 0 0 1 50 85.0 A 35.0 35.0 0 0 1 50 15.0 Z" fill="none" stroke-width="2"  />
  <g clip-path="url(#shapeClip)">
  <line x1="15.00" y1="50.00" x2="85.00" y2="50.00" stroke="#000" stroke-width="0.8" stroke-linecap="round"/>
  </g>
</svg>