<svg xmlns="http://www.w3.org/2000/svg" viewBox="0 0 100 100" fill="none" stroke="#000" stroke-linecap="round" stroke-linejoin="round">
  <!-- square container, solid, fill; 0 none motifs -->
  <defs><clipPath id="shapeClip"><path d="M17 17 L83 17 L83 83 L17 83 Z"/></clipPath></defs>
  <path d="M17 17 L83 17 L83 83 L17 83 Z" fill="none" stroke-width="2"  />
  <g clip-path="url(#shapeClip)">
  <path d="M 33.50 33.50 L 66.50 33.50 L 66.50 66.50 L 33.50 66.50 Z" fill="none" stroke="none" fill-rule="evenodd"/>
  <path d="M 17.00 17.00 L 83.00 17.00 L 83.00 83.00 L 17.00 83.00 Z M 33.50 33.50 L 66.50 33.50 L 66.50 66.50 L 33.50 66.50 Z" fill="#808080" stroke="none" fill-rule="evenodd"/>
  </g>
  <path d="M17 17 L83 17 L83 83 L17 83 Z" fill="none" stroke-width="2"  />
  <g clip-path="url(#shapeClip)">
  <line x1="33.50" y1="33.50" x2="66.50" y2="33.50" stroke="#000" stroke-width="0.8" stroke-linecap="round"/>
  <line x1="66.50" y1="33.50" x2="66.50" y2="66.50" stroke="#000" stroke-width="0.8" stroke-linecap="round"/>
  <line x1="66.50" y1="66.50" x2="33.50" y2="66.50" stroke="#000" stroke-width="0.8" stroke-linecap="round"/>
  <line x1="33.50" y1="66.50" x2="33.50" y2="33.50" stroke="#000" stroke-width="0.8" stroke-linecap="round"/>
  </g>
</svg>