<svg xmlns="http://www.w3.org/2000/svg" viewBox="0 0 100 100" fill="none" stroke="#000" stroke-linecap="round" stroke-linejoin="round">
  <!-- heart container, solid, fill; 0 none motifs -->
  <defs><clipPath id="shapeClip"><path d="M50 30 C50 10 15 10 15 40 C15 70 50 90 50 90 C50 90 85 70 85 40 C85 10 50 10 50 30 Z" fill="none" stroke-width="2"/></clipPath></defs>
  <defs><clipPath id="shapeClip_sec0"><path d="M 50.00 41.56 C 50.00 31.56 32.50 31.56 32.50 46.56 C 32.50 61.56 50.00 71.56 50.00 71.56 C 50.00 71.56 67.50 61.56 67.50 46.56 C 67.50 31.56 50.00 31.56 50.00 41.56 Z"/></clipPath></defs>
  <defs><clipPath id="shapeClip_sec1" clip-rule="evenodd"><path d="M 50.00 30.00 C 50.00 10.00 15.00 10.00 15.00 40.00 C 15.00 70.00 50.00 90.00 50.00 90.00 C 50.00 90.00 85.00 70.00 85.00 40.00 C 85.00 10.00 50.00 10.00 50.00 30.00 Z"/><path d="M 50.00 41.56 C 50.00 31.56 32.50 31.56 32.50 46.56 C 32.50 61.56 50.00 71.56 50.00 71.56 C 50.00 71.56 67.50 61.56 67.50 46.56 C 67.50 31.56 50.00 31.56 50.00 41.56 Z"/></clipPath></defs>
  <path d="M50 30 C50 10 15 10 15 40 C15 70 50 90 50 90 C50 90 85 70 85 40 C85 10 50 10 50 30 Z" fill="none" stroke-width="2"  />
  <g clip-path="url(#shapeClip)">
  <rect x="0" y="0" width="100" height="100" fill="#808080" stroke="none" clip-path="url(#shapeClip_sec1)"/>
  <rect x="0" y="0" width="100" height="100" fill="#fff" stroke="none" clip-path="url(#shapeClip_sec0)"/>
  </g>
  <path d="M50 30 C50 10 15 10 15 40 C15 70 50 90 50 90 C50 90 85 70 85 40 C85 10 50 10 50 30 Z" fill="none" stroke-width="2"  />
  <g clip-path="url(#shapeClip)">
  <path d="M 50.00 41.56 C 50.00 31.56 32.50 31.56 32.50 46.56 C 32.50 61.56 50.00 71.56 50.00 71.56 C 50.00 71.56 67.50 61.56 67.50 46.56 C 67.50 31.56 50.00 31.56 50.00 41.56 Z" fill="none" stroke="#000" stroke-width="0.8" stroke-linecap="round" stroke-linejoin="round"/>
  </g>
</svg>