<svg xmlns="http://www.w3.org/2000/svg" viewBox="0 0 100 100" fill="none" stroke="#000" stroke-linecap="round" stroke-linejoin="round">
  <!-- circle container, solid, fill; 0 none motifs -->
  <defs><clipPath id="shapeClip"><path d="M 50 15.0 A 35.0 35.0 0 0 1 50 85.0 A 35.0 35.0 0 0 1 50 15.0 Z"/></clipPath></defs>
  <defs><clipPath id="shapeClip_sec2" clip-rule="evenodd"><path d="M 50.0 29.0 A 21.0 21.0 0 0 1 50.0 71.0 A 21.0 21.0 0 0 1 50.0 29.0 Z M 50.0 67.5 A 17.5 17.5 0 0 1 50.0 32.5 A 17.5 17.5 0 0 1 50.0 67.5 Z"/></clipPath></defs>
  <path d="M 50 15.0 A 35.0 35.0 0 0 1 50 85.0 A 35.0 35.0 0 0 1 50 15.0 Z" fill="none" stroke-width="2"  />
  <g clip-path="url(#shapeClip)">
  <path d="M 50.0 36.0 A 14.0 14.0 0 0 1 50.0 64.0 A 14.0 14.0 0 0 1 50.0 36.0 Z" fill="none" stroke="none" fill-rule="evenodd"/>
  <path d="M 50.0 32.5 A 17.5 17.5 0 0 1 50.0 67.5 A 17.5 17.5 0 0 1 50.0 32.5 Z M 50.0 64.0 A 14.0 14.0 0 0 1 50.0 36.0 A 14.0 14.0 0 0 1 50.0 64.0 Z" fill="#808080" stroke="none" fill-rule="evenodd"/>
  <g clip-path="url(#shapeClip_sec2)" fill="none">
    <line x1="0.00" y1="100.00" x2="100.00" y2="200.00" stroke="#000" stroke-width="0.8" stroke-linecap="round"/>
    <line x1="0.00" y1="97.00" x2="100.00" y2="197.00" stroke="#000" stroke-width="0.8" stroke-linecap="round"/>
    <line x1="0.00" y1="94.00" x2="100.00" y2="194.00" stroke="#000" stroke-width="0.8" stroke-linecap="round"/>
    <line x1="0.00" y1="91.00" x2="100.00" y2="191.00" stroke="#000" stroke-width="0.8" stroke-linecap="round"/>
    <line x1="0.00" y1="88.00" x2="100.00" y2="188.00" stroke="#000" stroke-width="0.8" stroke-linecap="round"/>
    <line x1="0.00" y1="85.00" x2="100.00" y2="185.00" stroke="#000" stroke-width="0.8" stroke-linecap="round"/>
    <line x1="0.00" y1="82.00" x2="100.00" y2="182.00" stroke="#000" stroke-width="0.8" stroke-linecap="round"/>
    <line x1="0.00" y1="79.00" x2="100.00" y2="179.00" stroke="#000" stroke-width="0.8" stroke-linecap="round"/>
    <line x1="0.00" y1="76.00" x2="100.00" y2="176.00" stroke="#000" stroke-width="0.8" stroke-linecap="round"/>
    <line x1="0.00" y1="73.00" x2="100.00" y2="173.00" stroke="#000" stroke-width="0.8" stroke-linecap="round"/>
    <line x1="0.00" y1="70.00" x2="100.00" y2="170.00" stroke="#000" stroke-width="0.8" stroke-linecap="round"/>
    <line x1="0.00" y1="67.00" x2="100.00" y2="167.00" stroke="#000" stroke-width="0.8" stroke-linecap="round"/>
    <line x1="0.00" y1="64.00" x2="100.00" y2="164.00" stroke="#000" stroke-width="0.8" stroke-linecap="round"/>
    <line x1="0.00" y1="61.00" x2="100.00" y2="161.00" stroke="#000" stroke-width="0.8" stroke-linecap="round"/>
    <line x1="0.00" y1="58.00" x2="100.00" y2="158.00" stroke="#000" stroke-width="0.8" stroke-linecap="round"/>
    <line x1="0.00" y1="55.00" x2="100.00" y2="155.00" stroke="#000" stroke-width="0.8" stroke-linecap="round"/>
    <line x1="0.00" y1="52.00" x2="100.00" y2="152.00" stroke="#000" stroke-width="0.8" stroke-linecap="round"/>
    <line x1="0.00" y1="49.00" x2="100.00" y2="149.00" stroke="#000" stroke-width="0.8" stroke-linecap="round"/>
    <line x1="0.00" y1="46.00" x2="100.00" y2="146.00" stroke="#000" stroke-width="0.8" stroke-linecap="round"/>
    <line x1="0.00" y1="43.00" x2="100.00" y2="143.00" stroke="#000" stroke-width="0.8" stroke-linecap="round"/>
    <line x1="0.00" y1="40.00" x2="100.00" y2="140.00" stroke="#000" stroke-width="0.8" stroke-linecap="round"/>
    <line x1="0.00" y1="37.00" x2="100.00" y2="137.00" stroke="#000" stroke-width="0.8" stroke-linecap="round"/>
    <line x1="0.00" y1="34.00" x2="100.00" y2="134.00" stroke="#000" stroke-width="0.8" stroke-linecap="round"/>
    <line x1="0.00" y1="31.00" x2="100.00" y2="131.00" stroke="#000" stroke-width="0.8" stroke-linecap="round"/>
    <line x1="0.00" y1="28.00" x2="100.00" y2="128.00" stroke="#000" stroke-width="0.8" stroke-linecap="round"/>
    <line x1="0.00" y1="25.00" x2="100.00" y2="125.00" stroke="#000" stroke-width="0.8" stroke-linecap="round"/>
    <line x1="0.00" y1="22.00" x2="100.00" y2="122.00" stroke="#000" stroke-width="0.8" stroke-linecap="round"/>
    <line x1="0.00" y1="19.00" x2="100.00" y2="119.00" stroke="#000" stroke-width="0.8" stroke-linecap="round"/>
    <line x1="0.00" y1="16.00" x2="100.00" y2="116.00" stroke="#000" stroke-width="0.8" stroke-linecap="round"/>
    <line x1="0.00" y1="13.00" x2="100.00" y2="113.00" stroke="#000" stroke-width="0.8" stroke-linecap="round"/>
    <line x1="0.00" y1="10.00" x2="100.00" y2="110.00" stroke="#000" stroke-width="0.8" stroke-linecap="round"/>
    <line x1="0.00" y1="7.00" x2="100.00" y2="107.00" stroke="#000" stroke-width="0.8" stroke-linecap="round"/>
    <line x1="0.00" y1="4.00" x2="100.00" y2="104.00" stroke="#000" stroke-width="0.8" stroke-linecap="round"/>
    <line x1="0.00" y1="1.00" x2="100.00" y2="101.00" stroke="#000" stroke-width="0.8" stroke-linecap="round"/>
    <line x1="0.00" y1="-2.00" x2="100.00" y2="98.00" stroke="#000" stroke-width="0.8" stroke-linecap="round"/>
    <line x1="0.00" y1="-5.00" x2="100.00" y2="95.00" stroke="#000" stroke-width="0.8" stroke-linecap="round"/>
    <line x1="0.00" y1="-8.00" x2="100.00" y2="92.00" stroke="#000" stroke-width="0.8" stroke-linecap="round"/>
    <line x1="0.00" y1="-11.00" x2="100.00" y2="89.00" stroke="#000" stroke-width="0.8" stroke-linecap="round"/>
    <line x1="0.00" y1="-14.00" x2="100.00" y2="86.00" stroke="#000" stroke-width="0.8" stroke-linecap="round"/>
    <line x1="0.00" y1="-17.00" x2="100.00" y2="83.00" stroke="#000" stroke-width="0.8" stroke-linecap="round"/>
    <line x1="0.00" y1="-20.00" x2="100.00" y2="80.00" stroke="#000" stroke-width="0.8" stroke-linecap="round"/>
    <line x1="0.00" y1="-23.00" x2="100.00" y2="77.00" stroke="#000" stroke-width="0.8" stroke-linecap="round"/>
    <line x1="0.00" y1="-26.00" x2="100.00" y2="74.00" stroke="#000" stroke-width="0.8" stroke-linecap="round"/>
    <line x1="0.00" y1="-29.00" x2="100.00" y2="71.00" stroke="#000" stroke-width="0.8" stroke-linecap="round"/>
    <line x1="0.00" y1="-32.00" x2="100.00" y2="68.00" stroke="#000" stroke-width="0.8" stroke-linecap="round"/>
    <line x1="0.00" y1="-35.00" x2="100.00" y2="65.00" stroke="#000" stroke-width="0.8" stroke-linecap="round"/>
    <line x1="0.00" y1="-38.00" x2="100.00" y2="62.00" stroke="#000" stroke-width="0.8" stroke-linecap="round"/>
    <line x1="0.00" y1="-41.00" x2="100.00" y2="59.00" stroke="#000" stroke-width="0.8" stroke-linecap="round"/>
    <line x1="0.00" y1="-44.00" x2="100.00" y2="56.00" stroke="#000" stroke-width="0.8" stroke-linecap="round"/>
    <line x1="0.00" y1="-47.00" x2="100.00" y2="53.00" stroke="#000" stroke-width="0.8" stroke-linecap="round"/>
    <line x1="0.00" y1="-50.00" x2="100.00" y2="50.00" stroke="#000" stroke-width="0.8" stroke-linecap="round"/>
    <line x1="0.00" y1="-53.00" x2="100.00" y2="47.00" stroke="#000" stroke-width="0.8" stroke-linecap="round"/>
    <line x1="0.00" y1="-56.00" x2="100.00" y2="44.00" stroke="#000" stroke-width="0.8" stroke-linecap="round"/>
    <line x1="0.00" y1="-59.00" x2="100.00" y2="41.00" stroke="#000" stroke-width="0.8" stroke-linecap="round"/>
    <line x1="0.00" y1="-62.00" x2="100.00" y2="38.00" stroke="#000" stroke-width="0.8" stroke-linecap="round"/>
    <line x1="0.00" y1="-65.00" x2="100.00" y2="35.00" stroke="#000" stroke-width="0.8" stroke-linecap="round"/>
    <line x1="0.00" y1="-68.00" x2="100.00" y2="32.00" stroke="#000" stroke-width="0.8" stroke-linecap="round"/>
    <line x1="0.00" y1="-71.00" x2="100.00" y2="29.00" stroke="#000" stroke-width="0.8" stroke-linecap="round"/>
    <line x1="0.00" y1="-74.00" x2="100.00" y2="26.00" stroke="#000" stroke-width="0.8" stroke-linecap="round"/>
    <line x1="0.00" y1="-77.00" x2="100.00" y2="23.00" stroke="#000" stroke-width="0.8" stroke-linecap="round"/>
    <line x1="0.00" y1="-80.00" x2="100.00" y2="20.00" stroke="#000" stroke-width="0.8" stroke-linecap="round"/>
    <line x1="0.00" y1="-83.00" x2="100.00" y2="17.00" stroke="#000" stroke-width="0.8" stroke-linecap="round"/>
    <line x1="0.00" y1="-86.00" x2="100.00" y2="14.00" stroke="#000" stroke-width="0.8" stroke-linecap="round"/>
    <line x1="0.00" y1="-89.00" x2="100.00" y2="11.00" stroke="#000" stroke-width="0.8" stroke-linecap="round"/>
    <line x1="0.00" y1="-92.00" x2="100.00" y2="8.00" stroke="#000" stroke-width="0.8" stroke-linecap="round"/>
    <line x1="0.00" y1="-95.00" x2="100.00" y2="5.00" stroke="#000" stroke-width="0.8" stroke-linecap="round"/>
    <line x1="0.00" y1="-98.00" x2="100.00" y2="2.00" stroke="#000" stroke-width="0.8" stroke-linecap="round"/>
    <line x1="0.00" y1="-101.00" x2="100.00" y2="-1.00" stroke="#000" stroke-width="0.8" stroke-linecap="round"/>
    <line x1="0.00" y1="-104.00" x2="100.00" y2="-4.00" stroke="#000" stroke-width="0.8" stroke-linecap="round"/>
    <line x1="0.00" y1="-107.00" x2="100.00" y2="-7.00" stroke="#000" stroke-width="0.8" stroke-linecap="round"/>
    <line x1="0.00" y1="-110.00" x2="100.00" y2="-10.00" stroke="#000" stroke-width="0.8" stroke-linecap="round"/>
    <line x1="0.00" y1="-113.00" x2="100.00" y2="-13.00" stroke="#000" stroke-width="0.8" stroke-linecap="round"/>
    <line x1="0.00" y1="-116.00" x2="100.00" y2="-16.00" stroke="#000" stroke-width="0.8" stroke-linecap="round"/>
    <line x1="0.00" y1="-119.00" x2="100.00" y2="-19.00" stroke="#000" stroke-width="0.8" stroke-linecap="round"/>
    <line x1="0.00" y1="-122.00" x2="100.00" y2="-22.00" stroke="#000" stroke-width="0.8" stroke-linecap="round"/>
    <line x1="0.00" y1="-125.00" x2="100.00" y2="-25.00" stroke="#000" stroke-width="0.8" stroke-linecap="round"/>
    <line x1="0.00" y1="-128.00" x2="100.00" y2="-28.00" stroke="#000" stroke-width="0.8" stroke-linecap="round"/>
    <line x1="0.00" y1="-131.00" x2="100.00" y2="-31.00" stroke="#000" stroke-width="0.8" stroke-linecap="round"/>
    <line x1="0.00" y1="-134.00" x2="100.00" y2="-34.00" stroke="#000" stroke-width="0.8" stroke-linecap="round"/>
    <line x1="0.00" y1="-137.00" x2="100.00" y2="-37.00" stroke="#000" stroke-width="0.8" stroke-linecap="round"/>
    <line x1="0.00" y1="-140.00" x2="100.00" y2="-40.00" stroke="#000" stroke-width="0.8" stroke-linecap="round"/>
    <line x1="0.00" y1="-143.00" x2="100.00" y2="-43.00" stroke="#000" stroke-width="0.8" stroke-linecap="round"/>
    <line x1="0.00" y1="-146.00" x2="100.00" y2="-46.00" stroke="#000" stroke-width="0.8" stroke-linecap="round"/>
    <line x1="0.00" y1="-149.00" x2="100.00" y2="-49.00" stroke="#000" stroke-width="0.8" stroke-linecap="round"/>
    <line x1="0.00" y1="-152.00" x2="100.00" y2="-52.00" stroke="#000" stroke-width="0.8" stroke-linecap="round"/>
    <line x1="0.00" y1="-155.00" x2="100.00" y2="-55.00" stroke="#000" stroke-width="0.8" stroke-linecap="round"/>
    <line x1="0.00" y1="-158.00" x2="100.00" y2="-58.00" stroke="#000" stroke-width="0.8" stroke-linecap="round"/>
    <line x1="0.00" y1="-161.00" x2="100.00" y2="-61.00" stroke="#000" stroke-width="0.8" stroke-linecap="round"/>
    <line x1="0.00" y1="-164.00" x2="100.00" y2="-64.00" stroke="#000" stroke-width="0.8" stroke-linecap="round"/>
    <line x1="0.00" y1="-167.00" x2="100.00" y2="-67.00" stroke="#000" stroke-width="0.8" stroke-linecap="round"/>
    <line x1="0.00" y1="-170.00" x2="100.00" y2="-70.00" stroke="#000" stroke-width="0.8" stroke-linecap="round"/>
    <line x1="0.00" y1="-173.00" x2="100.00" y2="-73.00" stroke="#000" stroke-width="0.8" stroke-linecap="round"/>
    <line x1="0.00" y1="-176.00" x2="100.00" y2="-76.00" stroke="#000" stroke-width="0.8" stroke-linecap="round"/>
    <line x1="0.00" y1="-179.00" x2="100.00" y2="-79.00" stroke="#000" stroke-width="0.8" stroke-linecap="round"/>
    <line x1="0.00" y1="-182.00" x2="100.00" y2="-82.00" stroke="#000" stroke-width="0.8" stroke-linecap="round"/>
    <line x1="0.00" y1="-185.00" x2="100.00" y2="-85.00" stroke="#000" stroke-width="0.8" stroke-linecap="round"/>
    <line x1="0.00" y1="-188.00" x2="100.00" y2="-88.00" stroke="#000" stroke-width="0.8" stroke-linecap="round"/>
    <line x1="0.00" y1="-191.00" x2="100.00" y2="-91.00" stroke="#000" stroke-width="0.8" stroke-linecap="round"/>
    <line x1="0.00" y1="-194.00" x2="100.00" y2="-94.00" stroke="#000" stroke-width="0.8" stroke-linecap="round"/>
    <line x1="0.00" y1="-197.00" x2="100.00" y2="-97.00" stroke="#000" stroke-width="0.8" stroke-linecap="round"/>
    <line x1="0.00" y1="-200.00" x2="100.00" y2="-100.00" stroke="#000" stroke-width="0.8" stroke-linecap="round"/>
  </g>
  <path d="M 50.0 15.0 A 35.0 35.0 0 0 1 50.0 85.0 A 35.0 35.0 0 0 1 50.0 15.0 Z M 50.0 71.0 A 21.0 21.0 0 0 1 50.0 29.0 A 21.0 21.0 0 0 1 50.0 71.0 Z" fill="#808080" stroke="none" fill-rule="evenodd"/>
  </g>
  <path d="M 50 15.0 A 35.0 35.0 0 0 1 50 85.0 A 35.0 35.0 0 0 1 50 15.0 Z" fill="none" stroke-width="2"  />
  <g clip-path="url(#shapeClip)">
  <line x1="64.00" y1="50.00" x2="63.73" y2="52.73" stroke="#000" stroke-width="0.8" stroke-linecap="round"/>
  <line x1="63.73" y1="52.73" x2="62.93" y2="55.36" stroke="#000" stroke-width="0.8" stroke-linecap="round"/>
  <line x1="62.93" y1="55.36" x2="61.64" y2="57.78" stroke="#000" stroke-width="0.8" stroke-linecap="round"/>
  <line x1="61.64" y1="57.78" x2="59.90" y2="59.90" stroke="#000" stroke-width="0.8" stroke-linecap="round"/>
  <line x1="59.90" y1="59.90" x2="57.78" y2="61.64" stroke="#000" stroke-width="0.8" stroke-linecap="round"/>
  <line x1="57.78" y1="61.64" x2="55.36" y2="62.93" stroke="#000" stroke-width="0.8" stroke-linecap="round"/>
  <line x1="55.36" y1="62.93" x2="52.73" y2="63.73" stroke="#000" stroke-width="0.8" stroke-linecap="round"/>
  <line x1="52.73" y1="63.73" x2="50.00" y2="64.00" stroke="#000" stroke-width="0.8" stroke-linecap="round"/>
  <line x1="50.00" y1="64.00" x2="47.27" y2="63.73" stroke="#000" stroke-width="0.8" stroke-linecap="round"/>
  <line x1="47.27" y1="63.73" x2="44.64" y2="62.93" stroke="#000" stroke-width="0.8" stroke-linecap="round"/>
  <line x1="44.64" y1="62.93" x2="42.22" y2="61.64" stroke="#000" stroke-width="0.8" stroke-linecap="round"/>
  <line x1="42.22" y1="61.64" x2="40.10" y2="59.90" stroke="#000" stroke-width="0.8" stroke-linecap="round"/>
  <line x1="40.10" y1="59.90" x2="38.36" y2="57.78" stroke="#000" stroke-width="0.8" stroke-linecap="round"/>
  <line x1="38.36" y1="57.78" x2="37.07" y2="55.36" stroke="#000" stroke-width="0.8" stroke-linecap="round"/>
  <line x1="37.07" y1="55.36" x2="36.27" y2="52.73" stroke="#000" stroke-width="0.8" stroke-linecap="round"/>
  <line x1="36.27" y1="52.73" x2="36.00" y2="50.00" stroke="#000" stroke-width="0.8" stroke-linecap="round"/>
  <line x1="36.00" y1="50.00" x2="36.27" y2="47.27" stroke="#000" stroke-width="0.8" stroke-linecap="round"/>
  <line x1="36.27" y1="47.27" x2="37.07" y2="44.64" stroke="#000" stroke-width="0.8" stroke-linecap="round"/>
  <line x1="37.07" y1="44.64" x2="38.36" y2="42.22" stroke="#000" stroke-width="0.8" stroke-linecap="round"/>
  <line x1="38.36" y1="42.22" x2="40.10" y2="40.10" stroke="#000" stroke-width="0.8" stroke-linecap="round"/>
  <line x1="40.10" y1="40.10" x2="42.22" y2="38.36" stroke="#000" stroke-width="0.8" stroke-linecap="round"/>
  <line x1="42.22" y1="38.36" x2="44.64" y2="37.07" stroke="#000" stroke-width="0.8" stroke-linecap="round"/>
  <line x1="44.64" y1="37.07" x2="47.27" y2="36.27" stroke="#000" stroke-width="0.8" stroke-linecap="round"/>
  <line x1="47.27" y1="36.27" x2="50.00" y2="36.00" stroke="#000" stroke-width="0.8" stroke-linecap="round"/>
  <line x1="50.00" y1="36.00" x2="52.73" y2="36.27" stroke="#000" stroke-width="0.8" stroke-linecap="round"/>
  <line x1="52.73" y1="36.27" x2="55.36" y2="37.07" stroke="#000" stroke-width="0.8" stroke-linecap="round"/>
  <line x1="55.36" y1="37.07" x2="57.78" y2="38.36" stroke="#000" stroke-width="0.8" stroke-linecap="round"/>
  <line x1="57.78" y1="38.36" x2="59.90" y2="40.10" stroke="#000" stroke-width="0.8" stroke-linecap="round"/>
  <line x1="59.90" y1="40.10" x2="61.64" y2="42.22" stroke="#000" stroke-width="0.8" stroke-linecap="round"/>
  <line x1="61.64" y1="42.22" x2="62.93" y2="44.64" stroke="#000" stroke-width="0.8" stroke-linecap="round"/>
  <line x1="62.93" y1="44.64" x2="63.73" y2="47.27" stroke="#000" stroke-width="0.8" stroke-linecap="round"/>
  <line x1="63.73" y1="47.27" x2="64.00" y2="50.00" stroke="#000" stroke-width="0.8" stroke-linecap="round"/>
  <line x1="67.50" y1="50.00" x2="67.16" y2="53.41" stroke="#000" stroke-width="0.8" stroke-linecap="round"/>
  <line x1="67.16" y1="53.41" x2="66.17" y2="56.70" stroke="#000" stroke-width="0.8" stroke-linecap="round"/>
  <line x1="66.17" y1="56.70" x2="64.55" y2="59.72" stroke="#000" stroke-width="0.8" stroke-linecap="round"/>
  <line x1="64.55" y1="59.72" x2="62.37" y2="62.37" stroke="#000" stroke-width="0.8" stroke-linecap="round"/>
  <line x1="62.37" y1="62.37" x2="59.72" y2="64.55" stroke="#000" stroke-width="0.8" stroke-linecap="round"/>
  <line x1="59.72" y1="64.55" x2="56.70" y2="66.17" stroke="#000" stroke-width="0.8" stroke-linecap="round"/>
  <line x1="56.70" y1="66.17" x2="53.41" y2="67.16" stroke="#000" stroke-width="0.8" stroke-linecap="round"/>
  <line x1="53.41" y1="67.16" x2="50.00" y2="67.50" stroke="#000" stroke-width="0.8" stroke-linecap="round"/>
  <line x1="50.00" y1="67.50" x2="46.59" y2="67.16" stroke="#000" stroke-width="0.8" stroke-linecap="round"/>
  <line x1="46.59" y1="67.16" x2="43.30" y2="66.17" stroke="#000" stroke-width="0.8" stroke-linecap="round"/>
  <line x1="43.30" y1="66.17" x2="40.28" y2="64.55" stroke="#000" stroke-width="0.8" stroke-linecap="round"/>
  <line x1="40.28" y1="64.55" x2="37.63" y2="62.37" stroke="#000" stroke-width="0.8" stroke-linecap="round"/>
  <line x1="37.63" y1="62.37" x2="35.45" y2="59.72" stroke="#000" stroke-width="0.8" stroke-linecap="round"/>
  <line x1="35.45" y1="59.72" x2="33.83" y2="56.70" stroke="#000" stroke-width="0.8" stroke-linecap="round"/>
  <line x1="33.83" y1="56.70" x2="32.84" y2="53.41" stroke="#000" stroke-width="0.8" stroke-linecap="round"/>
  <line x1="32.84" y1="53.41" x2="32.50" y2="50.00" stroke="#000" stroke-width="0.8" stroke-linecap="round"/>
  <line x1="32.50" y1="50.00" x2="32.84" y2="46.59" stroke="#000" stroke-width="0.8" stroke-linecap="round"/>
  <line x1="32.84" y1="46.59" x2="33.83" y2="43.30" stroke="#000" stroke-width="0.8" stroke-linecap="round"/>
  <line x1="33.83" y1="43.30" x2="35.45" y2="40.28" stroke="#000" stroke-width="0.8" stroke-linecap="round"/>
  <line x1="35.45" y1="40.28" x2="37.63" y2="37.63" stroke="#000" stroke-width="0.8" stroke-linecap="round"/>
  <line x1="37.63" y1="37.63" x2="40.28" y2="35.45" stroke="#000" stroke-width="0.8" stroke-linecap="round"/>
  <line x1="40.28" y1="35.45" x2="43.30" y2="33.83" stroke="#000" stroke-width="0.8" stroke-linecap="round"/>
  <line x1="43.30" y1="33.83" x2="46.59" y2="32.84" stroke="#000" stroke-width="0.8" stroke-linecap="round"/>
  <line x1="46.59" y1="32.84" x2="50.00" y2="32.50" stroke="#000" stroke-width="0.8" stroke-linecap="round"/>
  <line x1="50.00" y1="32.50" x2="53.41" y2="32.84" stroke="#000" stroke-width="0.8" stroke-linecap="round"/>
  <line x1="53.41" y1="32.84" x2="56.70" y2="33.83" stroke="#000" stroke-width="0.8" stroke-linecap="round"/>
  <line x1="56.70" y1="33.83" x2="59.72" y2="35.45" stroke="#000" stroke-width="0.8" stroke-linecap="round"/>
  <line x1="59.72" y1="35.45" x2="62.37" y2="37.63" stroke="#000" stroke-width="0.8" stroke-linecap="round"/>
  <line x1="62.37" y1="37.63" x2="64.55" y2="40.28" stroke="#000" stroke-width="0.8" stroke-linecap="round"/>
  <line x1="64.55" y1="40.28" x2="66.17" y2="43.30" stroke="#000" stroke-width="0.8" stroke-linecap="round"/>
  <line x1="66.17" y1="43.30" x2="67.16" y2="46.59" stroke="#000" stroke-width="0.8" stroke-linecap="round"/>
  <line x1="67.16" y1="46.59" x2="67.50" y2="50.00" stroke="#000" stroke-width="0.8" stroke-linecap="round"/>
  <line x1="71.00" y1="50.00" x2="70.60" y2="54.10" stroke="#000" stroke-width="0.8" stroke-linecap="round"/>
  <line x1="70.60" y1="54.10" x2="69.40" y2="58.04" stroke="#000" stroke-width="0.8" stroke-linecap="round"/>
  <line x1="69.40" y1="58.04" x2="67.46" y2="61.67" stroke="#000" stroke-width="0.8" stroke-linecap="round"/>
  <line x1="67.46" y1="61.67" x2="64.85" y2="64.85" stroke="#000" stroke-width="0.8" stroke-linecap="round"/>
  <line x1="64.85" y1="64.85" x2="61.67" y2="67.46" stroke="#000" stroke-width="0.8" stroke-linecap="round"/>
  <line x1="61.67" y1="67.46" x2="58.04" y2="69.40" stroke="#000" stroke-width="0.8" stroke-linecap="round"/>
  <line x1="58.04" y1="69.40" x2="54.10" y2="70.60" stroke="#000" stroke-width="0.8" stroke-linecap="round"/>
  <line x1="54.10" y1="70.60" x2="50.00" y2="71.00" stroke="#000" stroke-width="0.8" stroke-linecap="round"/>
  <line x1="50.00" y1="71.00" x2="45.90" y2="70.60" stroke="#000" stroke-width="0.8" stroke-linecap="round"/>
  <line x1="45.90" y1="70.60" x2="41.96" y2="69.40" stroke="#000" stroke-width="0.8" stroke-linecap="round"/>
  <line x1="41.96" y1="69.40" x2="38.33" y2="67.46" stroke="#000" stroke-width="0.8" stroke-linecap="round"/>
  <line x1="38.33" y1="67.46" x2="35.15" y2="64.85" stroke="#000" stroke-width="0.8" stroke-linecap="round"/>
  <line x1="35.15" y1="64.85" x2="32.54" y2="61.67" stroke="#000" stroke-width="0.8" stroke-linecap="round"/>
  <line x1="32.54" y1="61.67" x2="30.60" y2="58.04" stroke="#000" stroke-width="0.8" stroke-linecap="round"/>
  <line x1="30.60" y1="58.04" x2="29.40" y2="54.10" stroke="#000" stroke-width="0.8" stroke-linecap="round"/>
  <line x1="29.40" y1="54.10" x2="29.00" y2="50.00" stroke="#000" stroke-width="0.8" stroke-linecap="round"/>
  <line x1="29.00" y1="50.00" x2="29.40" y2="45.90" stroke="#000" stroke-width="0.8" stroke-linecap="round"/>
  <line x1="29.40" y1="45.90" x2="30.60" y2="41.96" stroke="#000" stroke-width="0.8" stroke-linecap="round"/>
  <line x1="30.60" y1="41.96" x2="32.54" y2="38.33" stroke="#000" stroke-width="0.8" stroke-linecap="round"/>
  <line x1="32.54" y1="38.33" x2="35.15" y2="35.15" stroke="#000" stroke-width="0.8" stroke-linecap="round"/>
  <line x1="35.15" y1="35.15" x2="38.33" y2="32.54" stroke="#000" stroke-width="0.8" stroke-linecap="round"/>
  <line x1="38.33" y1="32.54" x2="41.96" y2="30.60" stroke="#000" stroke-width="0.8" stroke-linecap="round"/>
  <line x1="41.96" y1="30.60" x2="45.90" y2="29.40" stroke="#000" stroke-width="0.8" stroke-linecap="round"/>
  <line x1="45.90" y1="29.40" x2="50.00" y2="29.00" stroke="#000" stroke-width="0.8" stroke-linecap="round"/>
  <line x1="50.00" y1="29.00" x2="54.10" y2="29.40" stroke="#000" stroke-width="0.8" stroke-linecap="round"/>
  <line x1="54.10" y1="29.40" x2="58.04" y2="30.60" stroke="#000" stroke-width="0.8" stroke-linecap="round"/>
  <line x1="58.04" y1="30.60" x2="61.67" y2="32.54" stroke="#000" stroke-width="0.8" stroke-linecap="round"/>
  <line x1="61.67" y1="32.54" x2="64.85" y2="35.15" stroke="#000" stroke-width="0.8" stroke-linecap="round"/>
  <line x1="64.85" y1="35.15" x2="67.46" y2="38.33" stroke="#000" stroke-width="0.8" stroke-linecap="round"/>
  <line x1="67.46" y1="38.33" x2="69.40" y2="41.96" stroke="#000" stroke-width="0.8" stroke-linecap="round"/>
  <line x1="69.40" y1="41.96" x2="70.60" y2="45.90" stroke="#000" stroke-width="0.8" stroke-linecap="round"/>
  <line x1="70.60" y1="45.90" x2="71.00" y2="50.00" stroke="#000" stroke-width="0.8" stroke-linecap="round"/>
  </g>
</svg>