<svg xmlns="http://www.w3.org/2000/svg" viewBox="0 0 100 100" fill="none" stroke="#000" stroke-linecap="round" stroke-linejoin="round">
  <!-- club container, solid, fill; 0 none motifs -->
  <defs><clipPath id="shapeClip"><path d="M 38 41 A 18 18 0 1 1 62 41 A 18 18 0 1 1 63 73 C 58 75 53 80 66 90 H 34 C 47 80 42 75 37 73 A 18 18 0 1 1 38 41 Z" fill="none" stroke-width="2"/></clipPath></defs>
  <path d="M 38 41 A 18 18 0 1 1 62 41 A 18 18 0 1 1 63 73 C 58 75 53 80 66 90 H 34 C 47 80 42 75 37 73 A 18 18 0 1 1 38 41 Z" fill="none" stroke-width="2"  />
  <g clip-path="url(#shapeClip)">
  <path d="M 0.00 0.00 L 50.00 0.00 L 50.00 51.79 L 0.00 51.79 Z" fill="none" stroke="none"/>
  <path d="M 50.00 0.00 L 100.00 0.00 L 100.00 51.79 L 50.00 51.79 Z" fill="#808080" stroke="none"/>
  <path d="M 50.00 51.79 L 100.00 51.79 L 100.00 100.00 L 50.00 100.00 Z" fill="none" stroke="none"/>
  <path d="M 0.00 51.79 L 50.00 51.79 L 50.00 100.00 L 0.00 100.00 Z" fill="#808080" stroke="none"/>
  </g>
  <path d="M 38 41 A 18 18 0 1 1 62 41 A 18 18 0 1 1 63 73 C 58 75 53 80 66 90 H 34 C 47 80 42 75 37 73 A 18 18 0 1 1 38 41 Z" fill="none" stroke-width="2"  />
  <g clip-path="url(#shapeClip)">
  <line x1="50.00" y1="0.00" x2="50.00" y2="100.00" stroke="#000" stroke-width="0.8" stroke-linecap="round"/>
  <line x1="0.00" y1="51.79" x2="100.00" y2="51.79" stroke="#000" stroke-width="0.8" stroke-linecap="round"/>
  <line x1="0.00" y1="51.79" x2="100.00" y2="51.79" stroke="#000" stroke-width="0.8" stroke-linecap="round"/>
  <line x1="50.00" y1="0.00" x2="50.00" y2="100.00" stroke="#000" stroke-width="0.8" stroke-linecap="round"/>
  </g>
</svg>