<svg xmlns="http://www.w3.org/2000/svg" viewBox="0 0 100 100" fill="none" stroke="#000" stroke-linecap="round" stroke-linejoin="round">
  <!-- heptagon container, solid, fill; 0 none motifs -->
  <defs><clipPath id="shapeClip"><path d="M 50.00 10.00 L 81.27 25.06 L 89.00 58.90 L 67.36 86.04 L 32.64 86.04 L 11.00 58.90 L 18.73 25.06 Z"/></clipPath></defs>
  <path d="M 50.00 10.00 L 81.27 25.06 L 89.00 58.90 L 67.36 86.04 L 32.64 86.04 L 11.00 58.90 L 18.73 25.06 Z" fill="none" stroke-width="2"  />
  <g clip-path="url(#shapeClip)">
  <path d="M 50.00 10.00 L 81.27 25.06 L 86.51 48.02 L 13.49 48.02 L 18.73 25.06 Z" fill="none" stroke="none"/>
  <path d="M 86.51 48.02 L 89.00 58.90 L 67.36 86.04 L 32.64 86.04 L 11.00 58.90 L 13.49 48.02 Z" fill="#808080" stroke="none"/>
  </g>
  <path d="M 50.00 10.00 L 81.27 25.06 L 89.00 58.90 L 67.36 86.04 L 32.64 86.04 L 11.00 58.90 L 18.73 25.06 Z" fill="none" stroke-width="2"  />
  <g clip-path="url(#shapeClip)">
  <line x1="11.00" y1="48.02" x2="89.00" y2="48.02" stroke="#000" stroke-width="0.8" stroke-linecap="round"/>
  </g>
</svg>