<svg xmlns="http://www.w3.org/2000/svg" viewBox="0 0 100 100" fill="none" stroke="#000" stroke-linecap="round" stroke-linejoin="round">
  <!-- arrow container, solid, fill; 0 none motifs -->
  <defs><clipPath id="shapeClip"><path d="M 15 25 L 35 25 L 35 15 L 85 50 L 35 85 L 35 75 L 15 75 Z"/></clipPath></defs>
  <path d="M 15 25 L 35 25 L 35 15 L 85 50 L 35 85 L 35 75 L 15 75 Z" fill="none" stroke-width="2"  />
  <g clip-path="url(#shapeClip)">
  <path d="M 15.00 25.00 L 35.00 25.00 L 35.00 15.00 L 85.00 50.00 L 85.00 50.00 L 15.00 50.00 Z" fill="none" stroke="none"/>
  <path d="M 85.00 50.00 L 85.00 50.00 L 35.00 85.00 L 35.00 75.00 L 15.00 75.00 L 15.00 50.00 Z" fill="#808080" stroke="none"/>
  </g>
  <path d="M 15 25 L 35 25 L 35 15 L 85 50 L 35 85 L 35 75 L 15 75 Z" fill="none" stroke-width="2"  />
  <g clip-path="url(#shapeClip)">
  <line x1="15.00" y1="50.00" x2="85.00" y2="50.00" stroke="#000" stroke-width="0.8" stroke-linecap="round"/>
  </g>
</svg>