<svg xmlns="http://www.w3.org/2000/svg" viewBox="0 0 100 100" fill="none" stroke="#000" stroke-linecap="round" stroke-linejoin="round">
  <!-- times container, solid, fill; 0 none motifs -->
  <defs><clipPath id="shapeClip"><path d="M 64.14 21.72 A 10.00 10.00 45.00 0 1 78.28 35.86 L 64.14 50.00 L 78.28 64.14 A 10.00 10.00 45.00 0 1 64.14 78.28 L 50.00 64.14 L 35.86 78.28 A 10.00 10.00 45.00 0 1 21.72 64.14 L 35.86 50.00 L 21.72 35.86 A 10.00 10.00 45.00 0 1 35.86 21.72 L 50.00 35.86 Z"/></clipPath></defs>
  <g transform="rotate(45 50 50)">
  <path d="M 40 20 A 10 10 0 0 1 60 20 V 40 H 80 A 10 10 0 0 1 80 60 H 60 V 80 A 10 10 0 0 1 40 80 V 60 H 20 A 10 10 0 0 1 20 40 H 40 Z" fill="none" stroke-width="2"  />
  </g>
  <g clip-path="url(#shapeClip)">
  <path d="M 64.14 21.72 L 67.39 19.55 L 71.21 18.79 L 75.04 19.55 L 78.28 21.72 L 78.28 21.72 L 21.72 78.28 L 21.72 78.28 L 19.55 75.04 L 18.79 71.21 L 19.55 67.39 L 21.72 64.14 L 35.86 50.00 L 21.72 35.86 L 19.55 32.61 L 18.79 28.79 L 19.55 24.96 L 21.72 21.72 L 24.96 19.55 L 28.79 18.79 L 32.61 19.55 L 35.86 21.72 L 50.00 35.86 L 64.14 21.72 Z" fill="none" stroke="none"/>
  <path d="M 78.28 21.72 L 78.28 21.72 L 80.45 24.96 L 81.21 28.79 L 80.45 32.61 L 78.28 35.86 L 64.14 50.00 L 78.28 64.14 L 80.45 67.39 L 81.21 71.21 L 80.45 75.04 L 78.28 78.28 L 75.04 80.45 L 71.21 81.21 L 67.39 80.45 L 64.14 78.28 L 50.00 64.14 L 35.86 78.28 L 32.61 80.45 L 28.79 81.21 L 24.96 80.45 L 21.72 78.28 L 21.72 78.28 Z" fill="#808080" stroke="none"/>
  </g>
  <g transform="rotate(45 50 50)">
  <path d="M 40 20 A 10 10 0 0 1 60 20 V 40 H 80 A 10 10 0 0 1 80 60 H 60 V 80 A 10 10 0 0 1 40 80 V 60 H 20 A 10 10 0 0 1 20 40 H 40 Z" fill="none" stroke-width="2"  />
  </g>
  <g clip-path="url(#shapeClip)">
  <line x1="18.79" y1="81.21" x2="81.21" y2="18.79" stroke="#000" stroke-width="0.8" stroke-linecap="round"/>
  </g>
</svg>