<svg xmlns="http://www.w3.org/2000/svg" viewBox="0 0 100 100" fill="none" stroke="#000" stroke-linecap="round" stroke-linejoin="round">
  <!-- star container, solid, fill; 0 none motifs -->
  <defs><clipPath id="shapeClip"><path d="M 50,5 L 60.1,36.09 L 92.8,36.09 L 66.35,55.31 L 76.45,86.41 L 50,67.19 L 23.55,86.41 L 33.65,55.31 L 7.2,36.09 L 39.9,36.09 Z" fill="none" stroke-width="2"/></clipPath></defs>
  <defs><clipPath id="shapeClip_sec0"><path d="M 50.00 32.14 L 53.37 42.50 L 64.27 42.50 L 55.45 48.91 L 58.82 59.27 L 50.00 52.87 L 41.18 59.27 L 44.55 48.91 L 35.73 42.50 L 46.63 42.50 Z"/></clipPath></defs>
  <defs><clipPath id="shapeClip_sec1" clip-rule="evenodd"><path d="M 50.00 18.57 L 56.73 39.29 L 78.53 39.29 L 60.90 52.11 L 67.63 72.84 L 50.00 60.03 L 32.37 72.84 L 39.10 52.11 L 21.47 39.29 L 43.27 39.29 Z"/><path d="M 50.00 32.14 L 53.37 42.50 L 64.27 42.50 L 55.45 48.91 L 58.82 59.27 L 50.00 52.87 L 41.18 59.27 L 44.55 48.91 L 35.73 42.50 L 46.63 42.50 Z"/></clipPath></defs>
  <defs><clipPath id="shapeClip_sec2" clip-rule="evenodd"><path d="M 50.00 5.00 L 60.10 36.09 L 92.80 36.09 L 66.35 55.31 L 76.45 86.41 L 50.00 67.19 L 23.55 86.41 L 33.65 55.31 L 7.20 36.09 L 39.90 36.09 Z"/><path d="M 50.00 18.57 L 56.73 39.29 L 78.53 39.29 L 60.90 52.11 L 67.63 72.84 L 50.00 60.03 L 32.37 72.84 L 39.10 52.11 L 21.47 39.29 L 43.27 39.29 Z"/></clipPath></defs>
  <path d="M 50,5 L 60.1,36.09 L 92.8,36.09 L 66.35,55.31 L 76.45,86.41 L 50,67.19 L 23.55,86.41 L 33.65,55.31 L 7.2,36.09 L 39.9,36.09 Z" fill="none" stroke-width="2"  />
  <g clip-path="url(#shapeClip)">
  <rect x="0" y="0" width="100" height="100" fill="none" stroke="none" clip-path="url(#shapeClip_sec2)"/>
  <rect x="0" y="0" width="100" height="100" fill="#808080" stroke="none" clip-path="url(#shapeClip_sec1)"/>
  <rect x="0" y="0" width="100" height="100" fill="#fff" stroke="none" clip-path="url(#shapeClip_sec0)"/>
  </g>
  <path d="M 50,5 L 60.1,36.09 L 92.8,36.09 L 66.35,55.31 L 76.45,86.41 L 50,67.19 L 23.55,86.41 L 33.65,55.31 L 7.2,36.09 L 39.9,36.09 Z" fill="none" stroke-width="2"  />
  <g clip-path="url(#shapeClip)">
  <path d="M 50.00 32.14 L 53.37 42.50 L 64.27 42.50 L 55.45 48.91 L 58.82 59.27 L 50.00 52.87 L 41.18 59.27 L 44.55 48.91 L 35.73 42.50 L 46.63 42.50 Z" fill="none" stroke="#000" stroke-width="0.8" stroke-linecap="round" stroke-linejoin="round"/>
  <path d="M 50.00 18.57 L 56.73 39.29 L 78.53 39.29 L 60.90 52.11 L 67.63 72.84 L 50.00 60.03 L 32.37 72.84 L 39.10 52.11 L 21.47 39.29 L 43.27 39.29 Z" fill="none" stroke="#000" stroke-width="0.8" stroke-linecap="round" stroke-linejoin="round"/>
  </g>
</svg>