<svg xmlns="http://www.w3.org/2000/svg" viewBox="0 0 100 100" fill="none" stroke="#000" stroke-linecap="round" stroke-linejoin="round">
  <!-- semicircle container, solid, fill; 0 none motifs -->
  <defs><clipPath id="shapeClip"><path d="M 8.00 67.5 A 42.0 42.0 0 0 1 92.00 67.5 Z"/></clipPath></defs>
  <path d="M 8.00 67.5 A 42.0 42.0 0 0 1 92.00 67.5 Z" fill="none" stroke-width="2"  />
  <g clip-path="url(#shapeClip)">
  <path d="M 8.00 67.50 L 8.36 62.02 L 9.43 56.63 L 11.20 51.43 L 13.63 46.50 L 16.68 41.93 L 20.30 37.80 L 24.43 34.18 L 29.00 31.13 L 33.93 28.70 L 39.13 26.93 L 44.52 25.86 L 50.00 25.50 L 55.48 25.86 L 60.87 26.93 L 66.07 28.70 L 71.00 31.13 L 75.57 34.18 L 79.70 37.80 L 83.32 41.93 L 86.37 46.50 L 88.80 51.43 L 90.57 56.63 L 91.64 62.02 L 92.00 67.50 L 8.00 67.50 Z" fill="none" stroke="none"/>
  <path d="M 8.00 67.50 L 8.00 67.50 L 92.00 67.50 L 92.00 67.50 L 8.00 67.50 Z" fill="#808080" stroke="none"/>
  </g>
  <path d="M 8.00 67.5 A 42.0 42.0 0 0 1 92.00 67.5 Z" fill="none" stroke-width="2"  />
  <g clip-path="url(#shapeClip)">
  <line x1="8.00" y1="67.50" x2="92.00" y2="67.50" stroke="#000" stroke-width="0.8" stroke-linecap="round"/>
  </g>
</svg>