<svg xmlns="http://www.w3.org/2000/svg" viewBox="0 0 100 100" fill="none" stroke="#000" stroke-linecap="round" stroke-linejoin="round">
  <!-- octagon container, solid, fill; 0 none motifs -->
  <defs><clipPath id="shapeClip"><path d="M 65.31 13.04 L 86.96 34.69 L 86.96 65.31 L 65.31 86.96 L 34.69 86.96 L 13.04 65.31 L 13.04 34.69 L 34.69 13.04 Z"/></clipPath></defs>
  <defs><clipPath id="shapeClip_sec2"><path d="M 65.31 13.04 L 86.96 34.69 L 86.96 65.31 L 65.31 86.96 L 62.32 86.96 L 62.32 13.04 Z"/></clipPath></defs>
  <path d="M 65.31 13.04 L 86.96 34.69 L 86.96 65.31 L 65.31 86.96 L 34.69 86.96 L 13.04 65.31 L 13.04 34.69 L 34.69 13.04 Z" fill="none" stroke-width="2"  />
  <g clip-path="url(#shapeClip)">
  <path d="M 37.68 86.96 L 34.69 86.96 L 13.04 65.31 L 13.04 34.69 L 34.69 13.04 L 37.68 13.04 Z" fill="none" stroke="none"/>
  <path d="M 62.32 86.96 L 37.68 86.96 L 37.68 13.04 L 62.32 13.04 Z" fill="#808080" stroke="none"/>
  <g clip-path="url(#shapeClip_sec2)" fill="none">
    <line x1="0.00" y1="0.00" x2="100.00" y2="0.00" stroke="#000" stroke-width="0.8" stroke-linecap="round"/>
    <line x1="0.00" y1="2.00" x2="100.00" y2="2.00" stroke="#000" stroke-width="0.8" stroke-linecap="round"/>
    <line x1="0.00" y1="4.00" x2="100.00" y2="4.00" stroke="#000" stroke-width="0.8" stroke-linecap="round"/>
    <line x1="0.00" y1="6.00" x2="100.00" y2="6.00" stroke="#000" stroke-width="0.8" stroke-linecap="round"/>
    <line x1="0.00" y1="8.00" x2="100.00" y2="8.00" stroke="#000" stroke-width="0.8" stroke-linecap="round"/>
    <line x1="0.00" y1="10.00" x2="100.00" y2="10.00" stroke="#000" stroke-width="0.8" stroke-linecap="round"/>
    <line x1="0.00" y1="12.00" x2="100.00" y2="12.00" stroke="#000" stroke-width="0.8" stroke-linecap="round"/>
    <line x1="0.00" y1="14.00" x2="100.00" y2="14.00" stroke="#000" stroke-width="0.8" stroke-linecap="round"/>
    <line x1="0.00" y1="16.00" x2="100.00" y2="16.00" stroke="#000" stroke-width="0.8" stroke-linecap="round"/>
    <line x1="0.00" y1="18.00" x2="100.00" y2="18.00" stroke="#000" stroke-width="0.8" stroke-linecap="round"/>
    <line x1="0.00" y1="20.00" x2="100.00" y2="20.00" stroke="#000" stroke-width="0.8" stroke-linecap="round"/>
    <line x1="0.00" y1="22.00" x2="100.00" y2="22.00" stroke="#000" stroke-width="0.8" stroke-linecap="round"/>
    <line x1="0.00" y1="24.00" x2="100.00" y2="24.00" stroke="#000" stroke-width="0.8" stroke-linecap="round"/>
    <line x1="0.00" y1="26.00" x2="100.00" y2="26.00" stroke="#000" stroke-width="0.8" stroke-linecap="round"/>
    <line x1="0.00" y1="28.00" x2="100.00" y2="28.00" stroke="#000" stroke-width="0.8" stroke-linecap="round"/>
    <line x1="0.00" y1="30.00" x2="100.00" y2="30.00" stroke="#000" stroke-width="0.8" stroke-linecap="round"/>
    <line x1="0.00" y1="32.00" x2="100.00" y2="32.00" stroke="#000" stroke-width="0.8" stroke-linecap="round"/>
    <line x1="0.00" y1="34.00" x2="100.00" y2="34.00" stroke="#000" stroke-width="0.8" stroke-linecap="round"/>
    <line x1="0.00" y1="36.00" x2="100.00" y2="36.00" stroke="#000" stroke-width="0.8" stroke-linecap="round"/>
    <line x1="0.00" y1="38.00" x2="100.00" y2="38.00" stroke="#000" stroke-width="0.8" stroke-linecap="round"/>
    <line x1="0.00" y1="40.00" x2="100.00" y2="40.00" stroke="#000" stroke-width="0.8" stroke-linecap="round"/>
    <line x1="0.00" y1="42.00" x2="100.00" y2="42.00" stroke="#000" stroke-width="0.8" stroke-linecap="round"/>
    <line x1="0.00" y1="44.00" x2="100.00" y2="44.00" stroke="#000" stroke-width="0.8" stroke-linecap="round"/>
    <line x1="0.00" y1="46.00" x2="100.00" y2="46.00" stroke="#000" stroke-width="0.8" stroke-linecap="round"/>
    <line x1="0.00" y1="48.00" x2="100.00" y2="48.00" stroke="#000" stroke-width="0.8" stroke-linecap="round"/>
    <line x1="0.00" y1="50.00" x2="100.00" y2="50.00" stroke="#000" stroke-width="0.8" stroke-linecap="round"/>
    <line x1="0.00" y1="52.00" x2="100.00" y2="52.00" stroke="#000" stroke-width="0.8" stroke-linecap="round"/>
    <line x1="0.00" y1="54.00" x2="100.00" y2="54.00" stroke="#000" stroke-width="0.8" stroke-linecap="round"/>
    <line x1="0.00" y1="56.00" x2="100.00" y2="56.00" stroke="#000" stroke-width="0.8" stroke-linecap="round"/>
    <line x1="0.00" y1="58.00" x2="100.00" y2="58.00" stroke="#000" stroke-width="0.8" stroke-linecap="round"/>
    <line x1="0.00" y1="60.00" x2="100.00" y2="60.00" stroke="#000" stroke-width="0.8" stroke-linecap="round"/>
    <line x1="0.00" y1="62.00" x2="100.00" y2="62.00" stroke="#000" stroke-width="0.8" stroke-linecap="round"/>
    <line x1="0.00" y1="64.00" x2="100.00" y2="64.00" stroke="#000" stroke-width="0.8" stroke-linecap="round"/>
    <line x1="0.00" y1="66.00" x2="100.00" y2="66.00" stroke="#000" stroke-width="0.8" stroke-linecap="round"/>
    <line x1="0.00" y1="68.00" x2="100.00" y2="68.00" stroke="#000" stroke-width="0.8" stroke-linecap="round"/>
    <line x1="0.00" y1="70.00" x2="100.00" y2="70.00" stroke="#000" stroke-width="0.8" stroke-linecap="round"/>
    <line x1="0.00" y1="72.00" x2="100.00" y2="72.00" stroke="#000" stroke-width="0.8" stroke-linecap="round"/>
    <line x1="0.00" y1="74.00" x2="100.00" y2="74.00" stroke="#000" stroke-width="0.8" stroke-linecap="round"/>
    <line x1="0.00" y1="76.00" x2="100.00" y2="76.00" stroke="#000" stroke-width="0.8" stroke-linecap="round"/>
    <line x1="0.00" y1="78.00" x2="100.00" y2="78.00" stroke="#000" stroke-width="0.8" stroke-linecap="round"/>
    <line x1="0.00" y1="80.00" x2="100.00" y2="80.00" stroke="#000" stroke-width="0.8" stroke-linecap="round"/>
    <line x1="0.00" y1="82.00" x2="100.00" y2="82.00" stroke="#000" stroke-width="0.8" stroke-linecap="round"/>
    <line x1="0.00" y1="84.00" x2="100.00" y2="84.00" stroke="#000" stroke-width="0.8" stroke-linecap="round"/>
    <line x1="0.00" y1="86.00" x2="100.00" y2="86.00" stroke="#000" stroke-width="0.8" stroke-linecap="round"/>
    <line x1="0.00" y1="88.00" x2="100.00" y2="88.00" stroke="#000" stroke-width="0.8" stroke-linecap="round"/>
    <line x1="0.00" y1="90.00" x2="100.00" y2="90.00" stroke="#000" stroke-width="0.8" stroke-linecap="round"/>
    <line x1="0.00" y1="92.00" x2="100.00" y2="92.00" stroke="#000" stroke-width="0.8" stroke-linecap="round"/>
    <line x1="0.00" y1="94.00" x2="100.00" y2="94.00" stroke="#000" stroke-width="0.8" stroke-linecap="round"/>
    <line x1="0.00" y1="96.00" x2="100.00" y2="96.00" stroke="#000" stroke-width="0.8" stroke-linecap="round"/>
    <line x1="0.00" y1="98.00" x2="100.00" y2="98.00" stroke="#000" stroke-width="0.8" stroke-linecap="round"/>
    <line x1="0.00" y1="100.00" x2="100.00" y2="100.00" stroke="#000" stroke-width="0.8" stroke-linecap="round"/>
  </g>
  </g>
  <path d="M 65.31 13.04 L 86.96 34.69 L 86.96 65.31 L 65.31 86.96 L 34.69 86.96 L 13.04 65.31 L 13.04 34.69 L 34.69 13.04 Z" fill="none" stroke-width="2"  />
  <g clip-path="url(#shapeClip)">
  <line x1="37.68" y1="13.04" x2="37.68" y2="86.96" stroke="#000" stroke-width="0.8" stroke-linecap="round"/>
  <line x1="62.32" y1="13.04" x2="62.32" y2="86.96" stroke="#000" stroke-width="0.8" stroke-linecap="round"/>
  </g>
</svg>