<svg xmlns="http://www.w3.org/2000/svg" viewBox="0 0 100 100" fill="none" stroke="#000" stroke-linecap="round" stroke-linejoin="round">
  <!-- octagon container, solid, fill; 0 none motifs -->
  <defs><clipPath id="shapeClip"><path d="M 65.31 13.04 L 86.96 34.69 L 86.96 65.31 L 65.31 86.96 L 34.69 86.96 L 13.04 65.31 L 13.04 34.69 L 34.69 13.04 Z"/></clipPath></defs>
  <path d="M 65.31 13.04 L 86.96 34.69 L 86.96 65.31 L 65.31 86.96 L 34.69 86.96 L 13.04 65.31 L 13.04 34.69 L 34.69 13.04 Z" fill="none" stroke-width="2"  />
  <g clip-path="url(#shapeClip)">
  <path d="M 57.65 31.52 L 68.48 42.35 L 68.48 57.65 L 57.65 68.48 L 42.35 68.48 L 31.52 57.65 L 31.52 42.35 L 42.35 31.52 Z" fill="#808080" stroke="none" fill-rule="evenodd"/>
  <path d="M 65.31 13.04 L 86.96 34.69 L 86.96 65.31 L 65.31 86.96 L 34.69 86.96 L 13.04 65.31 L 13.04 34.69 L 34.69 13.04 Z M 57.65 31.52 L 68.48 42.35 L 68.48 57.65 L 57.65 68.48 L 42.35 68.48 L 31.52 57.65 L 31.52 42.35 L 42.35 31.52 Z" fill="none" stroke="none" fill-rule="evenodd"/>
  </g>
  <path d="M 65.31 13.04 L 86.96 34.69 L 86.96 65.31 L 65.31 86.96 L 34.69 86.96 L 13.04 65.31 L 13.04 34.69 L 34.69 13.04 Z" fill="none" stroke-width="2"  />
  <g clip-path="url(#shapeClip)">
  <line x1="57.65" y1="31.52" x2="68.48" y2="42.35" stroke="#000" stroke-width="0.8" stroke-linecap="round"/>
  <line x1="68.48" y1="42.35" x2="68.48" y2="57.65" stroke="#000" stroke-width="0.8" stroke-linecap="round"/>
  <line x1="68.48" y1="57.65" x2="57.65" y2="68.48" stroke="#000" stroke-width="0.8" stroke-linecap="round"/>
  <line x1="57.65" y1="68.48" x2="42.35" y2="68.48" stroke="#000" stroke-width="0.8" stroke-linecap="round"/>
  <line x1="42.35" y1="68.48" x2="31.52" y2="57.65" stroke="#000" stroke-width="0.8" stroke-linecap="round"/>
  <line x1="31.52" y1="57.65" x2="31.52" y2="42.35" stroke="#000" stroke-width="0.8" stroke-linecap="round"/>
  <line x1="31.52" y1="42.35" x2="42.35" y2="31.52" stroke="#000" stroke-width="0.8" stroke-linecap="round"/>
  <line x1="42.35" y1="31.52" x2="57.65" y2="31.52" stroke="#000" stroke-width="0.8" stroke-linecap="round"/>
  </g>
</svg>