<svg xmlns="http://www.w3.org/2000/svg" viewBox="0 0 100 100" fill="none" stroke="#000" stroke-linecap="round" stroke-linejoin="round">
  <!-- club container, solid, fill; 0 none motifs -->
  <defs><clipPath id="shapeClip"><path d="M 38 41 A 18 18 0 1 1 62 41 A 18 18 0 1 1 63 73 C 58 75 53 80 66 90 H 34 C 47 80 42 75 37 73 A 18 18 0 1 1 38 41 Z" fill="none" stroke-width="2"/></clipPath></defs>
  <path d="M 38 41 A 18 18 0 1 1 62 41 A 18 18 0 1 1 63 73 C 58 75 53 80 66 90 H 34 C 47 80 42 75 37 73 A 18 18 0 1 1 38 41 Z" fill="none" stroke-width="2"  />
  <g clip-path="url(#shapeClip)">
  <path d="M 38.00 41.00 L 32.51 31.83 L 33.18 21.16 L 39.79 12.76 L 50.00 9.58 L 60.21 12.76 L 66.82 21.16 L 67.49 31.83 L 66.79 33.00 L 25.83 73.96 L 19.42 71.81 L 13.31 65.06 L 11.28 56.18 L 13.86 47.45 L 20.38 41.09 L 29.18 38.74 L 38.00 41.00 L 38.00 41.00 Z" fill="none" stroke="none"/>
  <path d="M 66.79 33.00 L 62.00 41.00 L 70.82 38.74 L 79.62 41.09 L 86.14 47.45 L 88.72 56.18 L 86.69 65.06 L 80.58 71.81 L 71.95 74.70 L 63.00 73.00 L 59.53 75.09 L 57.75 78.50 L 59.34 83.41 L 66.00 90.00 L 34.00 90.00 L 40.66 83.41 L 42.25 78.50 L 40.47 75.09 L 37.00 73.00 L 28.05 74.70 L 25.83 73.96 Z" fill="#808080" stroke="none"/>
  </g>
  <path d="M 38 41 A 18 18 0 1 1 62 41 A 18 18 0 1 1 63 73 C 58 75 53 80 66 90 H 34 C 47 80 42 75 37 73 A 18 18 0 1 1 38 41 Z" fill="none" stroke-width="2"  />
  <g clip-path="url(#shapeClip)">
  <line x1="11.28" y1="88.51" x2="88.72" y2="11.07" stroke="#000" stroke-width="0.8" stroke-linecap="round"/>
  </g>
</svg>