<svg xmlns="http://www.w3.org/2000/svg" viewBox="0 0 100 100" fill="none" stroke="#000" stroke-linecap="round" stroke-linejoin="round">
  <!-- octagon container, solid, fill; 0 none motifs -->
  <defs><clipPath id="shapeClip"><path d="M 65.31 13.04 L 86.96 34.69 L 86.96 65.31 L 65.31 86.96 L 34.69 86.96 L 13.04 65.31 L 13.04 34.69 L 34.69 13.04 Z"/></clipPath></defs>
  <defs><clipPath id="shapeClip_sec2"><path d="M 62.31 86.96 L 34.69 86.96 L 13.04 65.31 L 13.04 37.69 Z"/></clipPath></defs>
  <path d="M 65.31 13.04 L 86.96 34.69 L 86.96 65.31 L 65.31 86.96 L 34.69 86.96 L 13.04 65.31 L 13.04 34.69 L 34.69 13.04 Z" fill="none" stroke-width="2"  />
  <g clip-path="url(#shapeClip)">
  <path d="M 65.31 13.04 L 86.96 34.69 L 86.96 62.31 L 37.69 13.04 Z" fill="none" stroke="none"/>
  <path d="M 86.96 62.31 L 86.96 65.31 L 65.31 86.96 L 62.31 86.96 L 13.04 37.69 L 13.04 34.69 L 34.69 13.04 L 37.69 13.04 Z" fill="#808080" stroke="none"/>
  <g clip-path="url(#shapeClip_sec2)" fill="none">
    <line x1="0.00" y1="0.00" x2="100.00" y2="-100.00" stroke="#000" stroke-width="0.8" stroke-linecap="round"/>
    <line x1="0.00" y1="3.00" x2="100.00" y2="-97.00" stroke="#000" stroke-width="0.8" stroke-linecap="round"/>
    <line x1="0.00" y1="6.00" x2="100.00" y2="-94.00" stroke="#000" stroke-width="0.8" stroke-linecap="round"/>
    <line x1="0.00" y1="9.00" x2="100.00" y2="-91.00" stroke="#000" stroke-width="0.8" stroke-linecap="round"/>
    <line x1="0.00" y1="12.00" x2="100.00" y2="-88.00" stroke="#000" stroke-width="0.8" stroke-linecap="round"/>
    <line x1="0.00" y1="15.00" x2="100.00" y2="-85.00" stroke="#000" stroke-width="0.8" stroke-linecap="round"/>
    <line x1="0.00" y1="18.00" x2="100.00" y2="-82.00" stroke="#000" stroke-width="0.8" stroke-linecap="round"/>
    <line x1="0.00" y1="21.00" x2="100.00" y2="-79.00" stroke="#000" stroke-width="0.8" stroke-linecap="round"/>
    <line x1="0.00" y1="24.00" x2="100.00" y2="-76.00" stroke="#000" stroke-width="0.8" stroke-linecap="round"/>
    <line x1="0.00" y1="27.00" x2="100.00" y2="-73.00" stroke="#000" stroke-width="0.8" stroke-linecap="round"/>
    <line x1="0.00" y1="30.00" x2="100.00" y2="-70.00" stroke="#000" stroke-width="0.8" stroke-linecap="round"/>
    <line x1="0.00" y1="33.00" x2="100.00" y2="-67.00" stroke="#000" stroke-width="0.8" stroke-linecap="round"/>
    <line x1="0.00" y1="36.00" x2="100.00" y2="-64.00" stroke="#000" stroke-width="0.8" stroke-linecap="round"/>
    <line x1="0.00" y1="39.00" x2="100.00" y2="-61.00" stroke="#000" stroke-width="0.8" stroke-linecap="round"/>
    <line x1="0.00" y1="42.00" x2="100.00" y2="-58.00" stroke="#000" stroke-width="0.8" stroke-linecap="round"/>
    <line x1="0.00" y1="45.00" x2="100.00" y2="-55.00" stroke="#000" stroke-width="0.8" stroke-linecap="round"/>
    <line x1="0.00" y1="48.00" x2="100.00" y2="-52.00" stroke="#000" stroke-width="0.8" stroke-linecap="round"/>
    <line x1="0.00" y1="51.00" x2="100.00" y2="-49.00" stroke="#000" stroke-width="0.8" stroke-linecap="round"/>
    <line x1="0.00" y1="54.00" x2="100.00" y2="-46.00" stroke="#000" stroke-width="0.8" stroke-linecap="round"/>
    <line x1="0.00" y1="57.00" x2="100.00" y2="-43.00" stroke="#000" stroke-width="0.8" stroke-linecap="round"/>
    <line x1="0.00" y1="60.00" x2="100.00" y2="-40.00" stroke="#000" stroke-width="0.8" stroke-linecap="round"/>
    <line x1="0.00" y1="63.00" x2="100.00" y2="-37.00" stroke="#000" stroke-width="0.8" stroke-linecap="round"/>
    <line x1="0.00" y1="66.00" x2="100.00" y2="-34.00" stroke="#000" stroke-width="0.8" stroke-linecap="round"/>
    <line x1="0.00" y1="69.00" x2="100.00" y2="-31.00" stroke="#000" stroke-width="0.8" stroke-linecap="round"/>
    <line x1="0.00" y1="72.00" x2="100.00" y2="-28.00" stroke="#000" stroke-width="0.8" stroke-linecap="round"/>
    <line x1="0.00" y1="75.00" x2="100.00" y2="-25.00" stroke="#000" stroke-width="0.8" stroke-linecap="round"/>
    <line x1="0.00" y1="78.00" x2="100.00" y2="-22.00" stroke="#000" stroke-width="0.8" stroke-linecap="round"/>
    <line x1="0.00" y1="81.00" x2="100.00" y2="-19.00" stroke="#000" stroke-width="0.8" stroke-linecap="round"/>
    <line x1="0.00" y1="84.00" x2="100.00" y2="-16.00" stroke="#000" stroke-width="0.8" stroke-linecap="round"/>
    <line x1="0.00" y1="87.00" x2="100.00" y2="-13.00" stroke="#000" stroke-width="0.8" stroke-linecap="round"/>
    <line x1="0.00" y1="90.00" x2="100.00" y2="-10.00" stroke="#000" stroke-width="0.8" stroke-linecap="round"/>
    <line x1="0.00" y1="93.00" x2="100.00" y2="-7.00" stroke="#000" stroke-width="0.8" stroke-linecap="round"/>
    <line x1="0.00" y1="96.00" x2="100.00" y2="-4.00" stroke="#000" stroke-width="0.8" stroke-linecap="round"/>
    <line x1="0.00" y1="99.00" x2="100.00" y2="-1.00" stroke="#000" stroke-width="0.8" stroke-linecap="round"/>
    <line x1="0.00" y1="102.00" x2="100.00" y2="2.00" stroke="#000" stroke-width="0.8" stroke-linecap="round"/>
    <line x1="0.00" y1="105.00" x2="100.00" y2="5.00" stroke="#000" stroke-width="0.8" stroke-linecap="round"/>
    <line x1="0.00" y1="108.00" x2="100.00" y2="8.00" stroke="#000" stroke-width="0.8" stroke-linecap="round"/>
    <line x1="0.00" y1="111.00" x2="100.00" y2="11.00" stroke="#000" stroke-width="0.8" stroke-linecap="round"/>
    <line x1="0.00" y1="114.00" x2="100.00" y2="14.00" stroke="#000" stroke-width="0.8" stroke-linecap="round"/>
    <line x1="0.00" y1="117.00" x2="100.00" y2="17.00" stroke="#000" stroke-width="0.8" stroke-linecap="round"/>
    <line x1="0.00" y1="120.00" x2="100.00" y2="20.00" stroke="#000" stroke-width="0.8" stroke-linecap="round"/>
    <line x1="0.00" y1="123.00" x2="100.00" y2="23.00" stroke="#000" stroke-width="0.8" stroke-linecap="round"/>
    <line x1="0.00" y1="126.00" x2="100.00" y2="26.00" stroke="#000" stroke-width="0.8" stroke-linecap="round"/>
    <line x1="0.00" y1="129.00" x2="100.00" y2="29.00" stroke="#000" stroke-width="0.8" stroke-linecap="round"/>
    <line x1="0.00" y1="132.00" x2="100.00" y2="32.00" stroke="#000" stroke-width="0.8" stroke-linecap="round"/>
    <line x1="0.00" y1="135.00" x2="100.00" y2="35.00" stroke="#000" stroke-width="0.8" stroke-linecap="round"/>
    <line x1="0.00" y1="138.00" x2="100.00" y2="38.00" stroke="#000" stroke-width="0.8" stroke-linecap="round"/>
    <line x1="0.00" y1="141.00" x2="100.00" y2="41.00" stroke="#000" stroke-width="0.8" stroke-linecap="round"/>
    <line x1="0.00" y1="144.00" x2="100.00" y2="44.00" stroke="#000" stroke-width="0.8" stroke-linecap="round"/>
    <line x1="0.00" y1="147.00" x2="100.00" y2="47.00" stroke="#000" stroke-width="0.8" stroke-linecap="round"/>
    <line x1="0.00" y1="150.00" x2="100.00" y2="50.00" stroke="#000" stroke-width="0.8" stroke-linecap="round"/>
    <line x1="0.00" y1="153.00" x2="100.00" y2="53.00" stroke="#000" stroke-width="0.8" stroke-linecap="round"/>
    <line x1="0.00" y1="156.00" x2="100.00" y2="56.00" stroke="#000" stroke-width="0.8" stroke-linecap="round"/>
    <line x1="0.00" y1="159.00" x2="100.00" y2="59.00" stroke="#000" stroke-width="0.8" stroke-linecap="round"/>
    <line x1="0.00" y1="162.00" x2="100.00" y2="62.00" stroke="#000" stroke-width="0.8" stroke-linecap="round"/>
    <line x1="0.00" y1="165.00" x2="100.00" y2="65.00" stroke="#000" stroke-width="0.8" stroke-linecap="round"/>
    <line x1="0.00" y1="168.00" x2="100.00" y2="68.00" stroke="#000" stroke-width="0.8" stroke-linecap="round"/>
    <line x1="0.00" y1="171.00" x2="100.00" y2="71.00" stroke="#000" stroke-width="0.8" stroke-linecap="round"/>
    <line x1="0.00" y1="174.00" x2="100.00" y2="74.00" stroke="#000" stroke-width="0.8" stroke-linecap="round"/>
    <line x1="0.00" y1="177.00" x2="100.00" y2="77.00" stroke="#000" stroke-width="0.8" stroke-linecap="round"/>
    <line x1="0.00" y1="180.00" x2="100.00" y2="80.00" stroke="#000" stroke-width="0.8" stroke-linecap="round"/>
    <line x1="0.00" y1="183.00" x2="100.00" y2="83.00" stroke="#000" stroke-width="0.8" stroke-linecap="round"/>
    <line x1="0.00" y1="186.00" x2="100.00" y2="86.00" stroke="#000" stroke-width="0.8" stroke-linecap="round"/>
    <line x1="0.00" y1="189.00" x2="100.00" y2="89.00" stroke="#000" stroke-width="0.8" stroke-linecap="round"/>
    <line x1="0.00" y1="192.00" x2="100.00" y2="92.00" stroke="#000" stroke-width="0.8" stroke-linecap="round"/>
    <line x1="0.00" y1="195.00" x2="100.00" y2="95.00" stroke="#000" stroke-width="0.8" stroke-linecap="round"/>
    <line x1="0.00" y1="198.00" x2="100.00" y2="98.00" stroke="#000" stroke-width="0.8" stroke-linecap="round"/>
  </g>
  </g>
  <path d="M 65.31 13.04 L 86.96 34.69 L 86.96 65.31 L 65.31 86.96 L 34.69 86.96 L 13.04 65.31 L 13.04 34.69 L 34.69 13.04 Z" fill="none" stroke-width="2"  />
  <g clip-path="url(#shapeClip)">
  <line x1="37.69" y1="13.04" x2="86.96" y2="62.31" stroke="#000" stroke-width="0.8" stroke-linecap="round"/>
  <line x1="13.04" y1="37.69" x2="62.31" y2="86.96" stroke="#000" stroke-width="0.8" stroke-linecap="round"/>
  </g>
</svg>