<svg xmlns="http://www.w3.org/2000/svg" viewBox="0 0 100 100" fill="none" stroke="#000" stroke-linecap="round" stroke-linejoin="round">
  <!-- circle container, solid, fill; 0 none motifs -->
  <defs><clipPath id="shapeClip"><path d="M 50 15.0 A 35.0 35.0 0 0 1 50 85.0 A 35.0 35.0 0 0 1 50 15.0 Z"/></clipPath></defs>
  <path d="M 50 15.0 A 35.0 35.0 0 0 1 50 85.0 A 35.0 35.0 0 0 1 50 15.0 Z" fill="none" stroke-width="2"  />
  <g clip-path="url(#shapeClip)">
  <path d="M 50.00 50.00 L 50.00 15.00 A 35.00 35.00 0 0 1 80.31 32.50 Z" fill="none" stroke="none"/>
  <path d="M 50.00 50.00 L 80.31 32.50 A 35.00 35.00 0 0 1 80.31 67.50 Z" fill="#808080" stroke="none"/>
  <path d="M 50.00 50.00 L 80.31 67.50 A 35.00 35.00 0 0 1 50.00 85.00 Z" fill="none" stroke="none"/>
  <path d="M 50.00 50.00 L 50.00 85.00 A 35.00 35.00 0 0 1 19.69 67.50 Z" fill="#808080" stroke="none"/>
  <path d="M 50.00 50.00 L 19.69 67.50 A 35.00 35.00 0 0 1 19.69 32.50 Z" fill="none" stroke="none"/>
  <path d="M 50.00 50.00 L 19.69 32.50 A 35.00 35.00 0 0 1 50.00 15.00 Z" fill="#808080" stroke="none"/>
  </g>
  <path d="M 50 15.0 A 35.0 35.0 0 0 1 50 85.0 A 35.0 35.0 0 0 1 50 15.0 Z" fill="none" stroke-width="2"  />
  <g clip-path="url(#shapeClip)">
  <line x1="50.00" y1="50.00" x2="80.31" y2="32.50" stroke="#000" stroke-width="0.8" stroke-linecap="round"/>
  <line x1="50.00" y1="50.00" x2="80.31" y2="67.50" stroke="#000" stroke-width="0.8" stroke-linecap="round"/>
  <line x1="50.00" y1="50.00" x2="50.00" y2="85.00" stroke="#000" stroke-width="0.8" stroke-linecap="round"/>
  <line x1="50.00" y1="50.00" x2="19.69" y2="67.50" stroke="#000" stroke-width="0.8" stroke-linecap="round"/>
  <line x1="50.00" y1="50.00" x2="19.69" y2="32.50" stroke="#000" stroke-width="0.8" stroke-linecap="round"/>
  <line x1="50.00" y1="50.00" x2="50.00" y2="15.00" stroke="#000" stroke-width="0.8" stroke-linecap="round"/>
  </g>
</svg>