<svg xmlns="http://www.w3.org/2000/svg" viewBox="0 0 100 100" fill="none" stroke="#000" stroke-linecap="round" stroke-linejoin="round">
  <!-- semicircle container, solid, fill; 0 none motifs -->
  <defs><clipPath id="shapeClip"><path d="M 8.00 67.5 A 42.0 42.0 0 0 1 92.00 67.5 Z"/></clipPath></defs>
  <path d="M 8.00 67.5 A 42.0 42.0 0 0 1 92.00 67.5 Z" fill="none" stroke-width="2"  />
  <g clip-path="url(#shapeClip)">
  <path d="M 29.00 58.60 L 29.18 55.86 L 29.72 53.16 L 30.60 50.56 L 31.81 48.10 L 33.34 45.82 L 35.15 43.75 L 37.22 41.94 L 39.50 40.41 L 41.96 39.20 L 44.56 38.32 L 47.26 37.78 L 50.00 37.60 L 52.74 37.78 L 55.44 38.32 L 58.04 39.20 L 60.50 40.41 L 62.78 41.94 L 64.85 43.75 L 66.66 45.82 L 68.19 48.10 L 69.40 50.56 L 70.28 53.16 L 70.82 55.86 L 71.00 58.60 L 29.00 58.60 Z" fill="none" stroke="none" fill-rule="evenodd"/>
  <path d="M 8.00 67.50 L 8.36 62.02 L 9.43 56.63 L 11.20 51.43 L 13.63 46.50 L 16.68 41.93 L 20.30 37.80 L 24.43 34.18 L 29.00 31.13 L 33.93 28.70 L 39.13 26.93 L 44.52 25.86 L 50.00 25.50 L 55.48 25.86 L 60.87 26.93 L 66.07 28.70 L 71.00 31.13 L 75.57 34.18 L 79.70 37.80 L 83.32 41.93 L 86.37 46.50 L 88.80 51.43 L 90.57 56.63 L 91.64 62.02 L 92.00 67.50 L 8.00 67.50 Z M 29.00 58.60 L 29.18 55.86 L 29.72 53.16 L 30.60 50.56 L 31.81 48.10 L 33.34 45.82 L 35.15 43.75 L 37.22 41.94 L 39.50 40.41 L 41.96 39.20 L 44.56 38.32 L 47.26 37.78 L 50.00 37.60 L 52.74 37.78 L 55.44 38.32 L 58.04 39.20 L 60.50 40.41 L 62.78 41.94 L 64.85 43.75 L 66.66 45.82 L 68.19 48.10 L 69.40 50.56 L 70.28 53.16 L 70.82 55.86 L 71.00 58.60 L 29.00 58.60 Z" fill="#808080" stroke="none" fill-rule="evenodd"/>
  </g>
  <path d="M 8.00 67.5 A 42.0 42.0 0 0 1 92.00 67.5 Z" fill="none" stroke-width="2"  />
  <g clip-path="url(#shapeClip)">
  <line x1="29.00" y1="58.60" x2="29.18" y2="55.86" stroke="#000" stroke-width="0.8" stroke-linecap="round"/>
  <line x1="29.18" y1="55.86" x2="29.72" y2="53.16" stroke="#000" stroke-width="0.8" stroke-linecap="round"/>
  <line x1="29.72" y1="53.16" x2="30.60" y2="50.56" stroke="#000" stroke-width="0.8" stroke-linecap="round"/>
  <line x1="30.60" y1="50.56" x2="31.81" y2="48.10" stroke="#000" stroke-width="0.8" stroke-linecap="round"/>
  <line x1="31.81" y1="48.10" x2="33.34" y2="45.82" stroke="#000" stroke-width="0.8" stroke-linecap="round"/>
  <line x1="33.34" y1="45.82" x2="35.15" y2="43.75" stroke="#000" stroke-width="0.8" stroke-linecap="round"/>
  <line x1="35.15" y1="43.75" x2="37.22" y2="41.94" stroke="#000" stroke-width="0.8" stroke-linecap="round"/>
  <line x1="37.22" y1="41.94" x2="39.50" y2="40.41" stroke="#000" stroke-width="0.8" stroke-linecap="round"/>
  <line x1="39.50" y1="40.41" x2="41.96" y2="39.20" stroke="#000" stroke-width="0.8" stroke-linecap="round"/>
  <line x1="41.96" y1="39.20" x2="44.56" y2="38.32" stroke="#000" stroke-width="0.8" stroke-linecap="round"/>
  <line x1="44.56" y1="38.32" x2="47.26" y2="37.78" stroke="#000" stroke-width="0.8" stroke-linecap="round"/>
  <line x1="47.26" y1="37.78" x2="50.00" y2="37.60" stroke="#000" stroke-width="0.8" stroke-linecap="round"/>
  <line x1="50.00" y1="37.60" x2="52.74" y2="37.78" stroke="#000" stroke-width="0.8" stroke-linecap="round"/>
  <line x1="52.74" y1="37.78" x2="55.44" y2="38.32" stroke="#000" stroke-width="0.8" stroke-linecap="round"/>
  <line x1="55.44" y1="38.32" x2="58.04" y2="39.20" stroke="#000" stroke-width="0.8" stroke-linecap="round"/>
  <line x1="58.04" y1="39.20" x2="60.50" y2="40.41" stroke="#000" stroke-width="0.8" stroke-linecap="round"/>
  <line x1="60.50" y1="40.41" x2="62.78" y2="41.94" stroke="#000" stroke-width="0.8" stroke-linecap="round"/>
  <line x1="62.78" y1="41.94" x2="64.85" y2="43.75" stroke="#000" stroke-width="0.8" stroke-linecap="round"/>
  <line x1="64.85" y1="43.75" x2="66.66" y2="45.82" stroke="#000" stroke-width="0.8" stroke-linecap="round"/>
  <line x1="66.66" y1="45.82" x2="68.19" y2="48.10" stroke="#000" stroke-width="0.8" stroke-linecap="round"/>
  <line x1="68.19" y1="48.10" x2="69.40" y2="50.56" stroke="#000" stroke-width="0.8" stroke-linecap="round"/>
  <line x1="69.40" y1="50.56" x2="70.28" y2="53.16" stroke="#000" stroke-width="0.8" stroke-linecap="round"/>
  <line x1="70.28" y1="53.16" x2="70.82" y2="55.86" stroke="#000" stroke-width="0.8" stroke-linecap="round"/>
  <line x1="70.82" y1="55.86" x2="71.00" y2="58.60" stroke="#000" stroke-width="0.8" stroke-linecap="round"/>
  <line x1="71.00" y1="58.60" x2="29.00" y2="58.60" stroke="#000" stroke-width="0.8" stroke-linecap="round"/>
  <line x1="29.00" y1="58.60" x2="29.00" y2="58.60" stroke="#000" stroke-width="0.8" stroke-linecap="round"/>
  </g>
</svg>