<svg xmlns="http://www.w3.org/2000/svg" viewBox="0 0 100 100" fill="none" stroke="#000" stroke-linecap="round" stroke-linejoin="round">
  <!-- right_angled_triangle container, solid, fill; 0 none motifs -->
  <defs><clipPath id="shapeClip"><path d="M 8.00 92.00 L 9.41 9.41 L 90.59 90.59 Z"/></clipPath></defs>
  <path d="M 8.00 92.00 L 9.41 9.41 L 90.59 90.59 Z" fill="none" stroke-width="2"  />
  <g clip-path="url(#shapeClip)">
  <path d="M 0.00 0.00 L 36.00 0.00 L 36.00 64.00 L 0.00 64.00 Z" fill="none" stroke="none"/>
  <path d="M 36.00 0.00 L 100.00 0.00 L 100.00 64.00 L 36.00 64.00 Z" fill="#808080" stroke="none"/>
  <path d="M 36.00 64.00 L 100.00 64.00 L 100.00 100.00 L 36.00 100.00 Z" fill="none" stroke="none"/>
  <path d="M 0.00 64.00 L 36.00 64.00 L 36.00 100.00 L 0.00 100.00 Z" fill="#808080" stroke="none"/>
  </g>
  <path d="M 8.00 92.00 L 9.41 9.41 L 90.59 90.59 Z" fill="none" stroke-width="2"  />
  <g clip-path="url(#shapeClip)">
  <line x1="36.00" y1="0.00" x2="36.00" y2="100.00" stroke="#000" stroke-width="0.8" stroke-linecap="round"/>
  <line x1="0.00" y1="64.00" x2="100.00" y2="64.00" stroke="#000" stroke-width="0.8" stroke-linecap="round"/>
  <line x1="0.00" y1="64.00" x2="100.00" y2="64.00" stroke="#000" stroke-width="0.8" stroke-linecap="round"/>
  <line x1="36.00" y1="0.00" x2="36.00" y2="100.00" stroke="#000" stroke-width="0.8" stroke-linecap="round"/>
  </g>
</svg>