<svg xmlns="http://www.w3.org/2000/svg" viewBox="0 0 100 100" fill="none" stroke="#000" stroke-linecap="round" stroke-linejoin="round">
  <!-- arrow container, solid, fill; 0 none motifs -->
  <defs><clipPath id="shapeClip"><path d="M 15 25 L 35 25 L 35 15 L 85 50 L 35 85 L 35 75 L 15 75 Z"/></clipPath></defs>
  <path d="M 15 25 L 35 25 L 35 15 L 85 50 L 35 85 L 35 75 L 15 75 Z" fill="none" stroke-width="2"  />
  <g clip-path="url(#shapeClip)">
  <path d="M 28.48 37.50 L 38.48 37.50 L 38.48 32.50 L 63.48 50.00 L 38.48 67.50 L 38.48 62.50 L 28.48 62.50 Z" fill="none" stroke="none" fill-rule="evenodd"/>
  <path d="M 15.00 25.00 L 35.00 25.00 L 35.00 15.00 L 85.00 50.00 L 35.00 85.00 L 35.00 75.00 L 15.00 75.00 Z M 28.48 37.50 L 38.48 37.50 L 38.48 32.50 L 63.48 50.00 L 38.48 67.50 L 38.48 62.50 L 28.48 62.50 Z" fill="#808080" stroke="none" fill-rule="evenodd"/>
  </g>
  <path d="M 15 25 L 35 25 L 35 15 L 85 50 L 35 85 L 35 75 L 15 75 Z" fill="none" stroke-width="2"  />
  <g clip-path="url(#shapeClip)">
  <line x1="28.48" y1="37.50" x2="38.48" y2="37.50" stroke="#000" stroke-width="0.8" stroke-linecap="round"/>
  <line x1="38.48" y1="37.50" x2="38.48" y2="32.50" stroke="#000" stroke-width="0.8" stroke-linecap="round"/>
  <line x1="38.48" y1="32.50" x2="63.48" y2="50.00" stroke="#000" stroke-width="0.8" stroke-linecap="round"/>
  <line x1="63.48" y1="50.00" x2="38.48" y2="67.50" stroke="#000" stroke-width="0.8" stroke-linecap="round"/>
  <line x1="38.48" y1="67.50" x2="38.48" y2="62.50" stroke="#000" stroke-width="0.8" stroke-linecap="round"/>
  <line x1="38.48" y1="62.50" x2="28.48" y2="62.50" stroke="#000" stroke-width="0.8" stroke-linecap="round"/>
  <line x1="28.48" y1="62.50" x2="28.48" y2="37.50" stroke="#000" stroke-width="0.8" stroke-linecap="round"/>
  </g>
</svg>