<svg xmlns="http://www.w3.org/2000/svg" viewBox="0 0 100 100" fill="none" stroke="#000" stroke-linecap="round" stroke-linejoin="round">
  <!-- plus container, solid, fill; 0 none motifs -->
  <defs><clipPath id="shapeClip"><path d="M 40 20 A 10 10 0 0 1 60 20 V 40 H 80 A 10 10 0 0 1 80 60 H 60 V 80 A 10 10 0 0 1 40 80 V 60 H 20 A 10 10 0 0 1 20 40 H 40 Z" fill="none" stroke-width="2"/></clipPath></defs>
  <path d="M 40 20 A 10 10 0 0 1 60 20 V 40 H 80 A 10 10 0 0 1 80 60 H 60 V 80 A 10 10 0 0 1 40 80 V 60 H 20 A 10 10 0 0 1 20 40 H 40 Z" fill="none" stroke-width="2"  />
  <g clip-path="url(#shapeClip)">
  <path d="M 40.00 20.00 L 40.76 16.17 L 42.93 12.93 L 46.17 10.76 L 50.00 10.00 L 50.00 10.00 L 50.00 90.00 L 50.00 90.00 L 46.17 89.24 L 42.93 87.07 L 40.76 83.83 L 40.00 80.00 L 40.00 60.00 L 20.00 60.00 L 16.17 59.24 L 12.93 57.07 L 10.76 53.83 L 10.00 50.00 L 10.76 46.17 L 12.93 42.93 L 16.17 40.76 L 20.00 40.00 L 40.00 40.00 L 40.00 20.00 Z" fill="#808080" stroke="none"/>
  <path d="M 50.00 10.00 L 50.00 10.00 L 53.83 10.76 L 57.07 12.93 L 59.24 16.17 L 60.00 20.00 L 60.00 40.00 L 80.00 40.00 L 83.83 40.76 L 87.07 42.93 L 89.24 46.17 L 90.00 50.00 L 89.24 53.83 L 87.07 57.07 L 83.83 59.24 L 80.00 60.00 L 60.00 60.00 L 60.00 80.00 L 59.24 83.83 L 57.07 87.07 L 53.83 89.24 L 50.00 90.00 L 50.00 90.00 Z" fill="none" stroke="none"/>
  </g>
  <path d="M 40 20 A 10 10 0 0 1 60 20 V 40 H 80 A 10 10 0 0 1 80 60 H 60 V 80 A 10 10 0 0 1 40 80 V 60 H 20 A 10 10 0 0 1 20 40 H 40 Z" fill="none" stroke-width="2"  />
  <g clip-path="url(#shapeClip)">
  <line x1="50.00" y1="10.00" x2="50.00" y2="90.00" stroke="#000" stroke-width="0.8" stroke-linecap="round"/>
  </g>
</svg>