<svg xmlns="http://www.w3.org/2000/svg" viewBox="0 0 100 100" fill="none" stroke="#000" stroke-linecap="round" stroke-linejoin="round">
  <!-- times container, solid, fill; 0 none motifs -->
  <defs><clipPath id="shapeClip"><path d="M 64.14 21.72 A 10.00 10.00 45.00 0 1 78.28 35.86 L 64.14 50.00 L 78.28 64.14 A 10.00 10.00 45.00 0 1 64.14 78.28 L 50.00 64.14 L 35.86 78.28 A 10.00 10.00 45.00 0 1 21.72 64.14 L 35.86 50.00 L 21.72 35.86 A 10.00 10.00 45.00 0 1 35.86 21.72 L 50.00 35.86 Z"/></clipPath></defs>
  <defs><clipPath id="shapeClip_sec0"><path d="M 57.07 35.86 A 5.00 5.00 45.00 0 1 64.14 42.93 L 57.07 50.00 L 64.14 57.07 A 5.00 5.00 45.00 0 1 57.07 64.14 L 50.00 57.07 L 42.93 64.14 A 5.00 5.00 45.00 0 1 35.86 57.07 L 42.93 50.00 L 35.86 42.93 A 5.00 5.00 45.00 0 1 42.93 35.86 L 50.00 42.93 Z"/></clipPath></defs>
  <defs><clipPath id="shapeClip_sec1" clip-rule="evenodd"><path d="M 64.14 21.72 A 10.00 10.00 45.00 0 1 78.28 35.86 L 64.14 50.00 L 78.28 64.14 A 10.00 10.00 45.00 0 1 64.14 78.28 L 50.00 64.14 L 35.86 78.28 A 10.00 10.00 45.00 0 1 21.72 64.14 L 35.86 50.00 L 21.72 35.86 A 10.00 10.00 45.00 0 1 35.86 21.72 L 50.00 35.86 Z"/><path d="M 57.07 35.86 A 5.00 5.00 45.00 0 1 64.14 42.93 L 57.07 50.00 L 64.14 57.07 A 5.00 5.00 45.00 0 1 57.07 64.14 L 50.00 57.07 L 42.93 64.14 A 5.00 5.00 45.00 0 1 35.86 57.07 L 42.93 50.00 L 35.86 42.93 A 5.00 5.00 45.00 0 1 42.93 35.86 L 50.00 42.93 Z"/></clipPath></defs>
  <g transform="rotate(45 50 50)">
  <path d="M 40 20 A 10 10 0 0 1 60 20 V 40 H 80 A 10 10 0 0 1 80 60 H 60 V 80 A 10 10 0 0 1 40 80 V 60 H 20 A 10 10 0 0 1 20 40 H 40 Z" fill="none" stroke-width="2"  />
  </g>
  <g clip-path="url(#shapeClip)">
  <rect x="0" y="0" width="100" height="100" fill="#808080" stroke="none" clip-path="url(#shapeClip_sec1)"/>
  <rect x="0" y="0" width="100" height="100" fill="#fff" stroke="none" clip-path="url(#shapeClip_sec0)"/>
  </g>
  <g transform="rotate(45 50 50)">
  <path d="M 40 20 A 10 10 0 0 1 60 20 V 40 H 80 A 10 10 0 0 1 80 60 H 60 V 80 A 10 10 0 0 1 40 80 V 60 H 20 A 10 10 0 0 1 20 40 H 40 Z" fill="none" stroke-width="2"  />
  </g>
  <g clip-path="url(#shapeClip)">
  <path d="M 57.07 35.86 A 5.00 5.00 45.00 0 1 64.14 42.93 L 57.07 50.00 L 64.14 57.07 A 5.00 5.00 45.00 0 1 57.07 64.14 L 50.00 57.07 L 42.93 64.14 A 5.00 5.00 45.00 0 1 35.86 57.07 L 42.93 50.00 L 35.86 42.93 A 5.00 5.00 45.00 0 1 42.93 35.86 L 50.00 42.93 Z" fill="none" stroke="#000" stroke-width="0.8" stroke-linecap="round" stroke-linejoin="round"/>
  </g>
</svg>