<svg xmlns="http://www.w3.org/2000/svg" viewBox="0 0 100 100" fill="none" stroke="#000" stroke-linecap="round" stroke-linejoin="round">
  <!-- circle container, solid, fill; 0 none motifs -->
  <defs><clipPath id="shapeClip"><path d="M 50 15.0 A 35.0 35.0 0 0 1 50 85.0 A 35.0 35.0 0 0 1 50 15.0 Z"/></clipPath></defs>
  <path d="M 50 15.0 A 35.0 35.0 0 0 1 50 85.0 A 35.0 35.0 0 0 1 50 15.0 Z" fill="none" stroke-width="2"  />
  <g clip-path="url(#shapeClip)">
  <path d="M 50.0 32.5 A 17.5 17.5 0 0 1 50.0 67.5 A 17.5 17.5 0 0 1 50.0 32.5 Z" fill="#808080" stroke="none" fill-rule="evenodd"/>
  <path d="M 50.0 15.0 A 35.0 35.0 0 0 1 50.0 85.0 A 35.0 35.0 0 0 1 50.0 15.0 Z M 50.0 67.5 A 17.5 17.5 0 0 1 50.0 32.5 A 17.5 17.5 0 0 1 50.0 67.5 Z" fill="none" stroke="none" fill-rule="evenodd"/>
  </g>
  <path d="M 50 15.0 A 35.0 35.0 0 0 1 50 85.0 A 35.0 35.0 0 0 1 50 15.0 Z" fill="none" stroke-width="2"  />
  <g clip-path="url(#shapeClip)">
  <line x1="67.50" y1="50.00" x2="67.16" y2="53.41" stroke="#000" stroke-width="0.8" stroke-linecap="round"/>
  <line x1="67.16" y1="53.41" x2="66.17" y2="56.70" stroke="#000" stroke-width="0.8" stroke-linecap="round"/>
  <line x1="66.17" y1="56.70" x2="64.55" y2="59.72" stroke="#000" stroke-width="0.8" stroke-linecap="round"/>
  <line x1="64.55" y1="59.72" x2="62.37" y2="62.37" stroke="#000" stroke-width="0.8" stroke-linecap="round"/>
  <line x1="62.37" y1="62.37" x2="59.72" y2="64.55" stroke="#000" stroke-width="0.8" stroke-linecap="round"/>
  <line x1="59.72" y1="64.55" x2="56.70" y2="66.17" stroke="#000" stroke-width="0.8" stroke-linecap="round"/>
  <line x1="56.70" y1="66.17" x2="53.41" y2="67.16" stroke="#000" stroke-width="0.8" stroke-linecap="round"/>
  <line x1="53.41" y1="67.16" x2="50.00" y2="67.50" stroke="#000" stroke-width="0.8" stroke-linecap="round"/>
  <line x1="50.00" y1="67.50" x2="46.59" y2="67.16" stroke="#000" stroke-width="0.8" stroke-linecap="round"/>
  <line x1="46.59" y1="67.16" x2="43.30" y2="66.17" stroke="#000" stroke-width="0.8" stroke-linecap="round"/>
  <line x1="43.30" y1="66.17" x2="40.28" y2="64.55" stroke="#000" stroke-width="0.8" stroke-linecap="round"/>
  <line x1="40.28" y1="64.55" x2="37.63" y2="62.37" stroke="#000" stroke-width="0.8" stroke-linecap="round"/>
  <line x1="37.63" y1="62.37" x2="35.45" y2="59.72" stroke="#000" stroke-width="0.8" stroke-linecap="round"/>
  <line x1="35.45" y1="59.72" x2="33.83" y2="56.70" stroke="#000" stroke-width="0.8" stroke-linecap="round"/>
  <line x1="33.83" y1="56.70" x2="32.84" y2="53.41" stroke="#000" stroke-width="0.8" stroke-linecap="round"/>
  <line x1="32.84" y1="53.41" x2="32.50" y2="50.00" stroke="#000" stroke-width="0.8" stroke-linecap="round"/>
  <line x1="32.50" y1="50.00" x2="32.84" y2="46.59" stroke="#000" stroke-width="0.8" stroke-linecap="round"/>
  <line x1="32.84" y1="46.59" x2="33.83" y2="43.30" stroke="#000" stroke-width="0.8" stroke-linecap="round"/>
  <line x1="33.83" y1="43.30" x2="35.45" y2="40.28" stroke="#000" stroke-width="0.8" stroke-linecap="round"/>
  <line x1="35.45" y1="40.28" x2="37.63" y2="37.63" stroke="#000" stroke-width="0.8" stroke-linecap="round"/>
  <line x1="37.63" y1="37.63" x2="40.28" y2="35.45" stroke="#000" stroke-width="0.8" stroke-linecap="round"/>
  <line x1="40.28" y1="35.45" x2="43.30" y2="33.83" stroke="#000" stroke-width="0.8" stroke-linecap="round"/>
  <line x1="43.30" y1="33.83" x2="46.59" y2="32.84" stroke="#000" stroke-width="0.8" stroke-linecap="round"/>
  <line x1="46.59" y1="32.84" x2="50.00" y2="32.50" stroke="#000" stroke-width="0.8" stroke-linecap="round"/>
  <line x1="50.00" y1="32.50" x2="53.41" y2="32.84" stroke="#000" stroke-width="0.8" stroke-linecap="round"/>
  <line x1="53.41" y1="32.84" x2="56.70" y2="33.83" stroke="#000" stroke-width="0.8" stroke-linecap="round"/>
  <line x1="56.70" y1="33.83" x2="59.72" y2="35.45" stroke="#000" stroke-width="0.8" stroke-linecap="round"/>
  <line x1="59.72" y1="35.45" x2="62.37" y2="37.63" stroke="#000" stroke-width="0.8" stroke-linecap="round"/>
  <line x1="62.37" y1="37.63" x2="64.55" y2="40.28" stroke="#000" stroke-width="0.8" stroke-linecap="round"/>
  <line x1="64.55" y1="40.28" x2="66.17" y2="43.30" stroke="#000" stroke-width="0.8" stroke-linecap="round"/>
  <line x1="66.17" y1="43.30" x2="67.16" y2="46.59" stroke="#000" stroke-width="0.8" stroke-linecap="round"/>
  <line x1="67.16" y1="46.59" x2="67.50" y2="50.00" stroke="#000" stroke-width="0.8" stroke-linecap="round"/>
  </g>
</svg>