<svg xmlns="http://www.w3.org/2000/svg" viewBox="0 0 100 100" fill="none" stroke="#000" stroke-linecap="round" stroke-linejoin="round">
  <!-- heptagon container, solid, fill; 0 none motifs -->
  <defs><clipPath id="shapeClip"><path d="M 50.00 10.00 L 81.27 25.06 L 89.00 58.90 L 67.36 86.04 L 32.64 86.04 L 11.00 58.90 L 18.73 25.06 Z"/></clipPath></defs>
  <path d="M 50.00 10.00 L 81.27 25.06 L 89.00 58.90 L 67.36 86.04 L 32.64 86.04 L 11.00 58.90 L 18.73 25.06 Z" fill="none" stroke-width="2"  />
  <g clip-path="url(#shapeClip)">
  <path d="M 50.00 50.00 L 50.00 10.00 L 81.27 25.06 Z" fill="none" stroke="none"/>
  <path d="M 50.00 50.00 L 81.27 25.06 L 89.00 58.90 Z" fill="#808080" stroke="none"/>
  <path d="M 50.00 50.00 L 89.00 58.90 L 67.36 86.04 Z" fill="none" stroke="none"/>
  <path d="M 50.00 50.00 L 67.36 86.04 L 32.64 86.04 Z" fill="#808080" stroke="none"/>
  <path d="M 50.00 50.00 L 32.64 86.04 L 11.00 58.90 Z" fill="none" stroke="none"/>
  <path d="M 50.00 50.00 L 11.00 58.90 L 18.73 25.06 Z" fill="#808080" stroke="none"/>
  <path d="M 50.00 50.00 L 18.73 25.06 L 50.00 10.00 Z" fill="none" stroke="none"/>
  </g>
  <path d="M 50.00 10.00 L 81.27 25.06 L 89.00 58.90 L 67.36 86.04 L 32.64 86.04 L 11.00 58.90 L 18.73 25.06 Z" fill="none" stroke-width="2"  />
  <g clip-path="url(#shapeClip)">
  <line x1="50.00" y1="50.00" x2="81.27" y2="25.06" stroke="#000" stroke-width="0.8" stroke-linecap="round"/>
  <line x1="50.00" y1="50.00" x2="89.00" y2="58.90" stroke="#000" stroke-width="0.8" stroke-linecap="round"/>
  <line x1="50.00" y1="50.00" x2="67.36" y2="86.04" stroke="#000" stroke-width="0.8" stroke-linecap="round"/>
  <line x1="50.00" y1="50.00" x2="32.64" y2="86.04" stroke="#000" stroke-width="0.8" stroke-linecap="round"/>
  <line x1="50.00" y1="50.00" x2="11.00" y2="58.90" stroke="#000" stroke-width="0.8" stroke-linecap="round"/>
  <line x1="50.00" y1="50.00" x2="18.73" y2="25.06" stroke="#000" stroke-width="0.8" stroke-linecap="round"/>
  <line x1="50.00" y1="50.00" x2="50.00" y2="10.00" stroke="#000" stroke-width="0.8" stroke-linecap="round"/>
  </g>
</svg>