<svg xmlns="http://www.w3.org/2000/svg" viewBox="0 0 100 100" fill="none" stroke="#000" stroke-linecap="round" stroke-linejoin="round">
  <!-- square container, solid, fill; 0 none motifs -->
  <defs><clipPath id="shapeClip"><path d="M17 17 L83 17 L83 83 L17 83 Z"/></clipPath></defs>
  <defs><clipPath id="shapeClip_sec2" clip-rule="evenodd"><path d="M 30.20 30.20 L 69.80 30.20 L 69.80 69.80 L 30.20 69.80 Z M 36.80 36.80 L 63.20 36.80 L 63.20 63.20 L 36.80 63.20 Z"/></clipPath></defs>
  <path d="M17 17 L83 17 L83 83 L17 83 Z" fill="none" stroke-width="2"  />
  <g clip-path="url(#shapeClip)">
  <path d="M 40.10 40.10 L 59.90 40.10 L 59.90 59.90 L 40.10 59.90 Z" fill="none" stroke="none" fill-rule="evenodd"/>
  <path d="M 36.80 36.80 L 63.20 36.80 L 63.20 63.20 L 36.80 63.20 Z M 40.10 40.10 L 59.90 40.10 L 59.90 59.90 L 40.10 59.90 Z" fill="#808080" stroke="none" fill-rule="evenodd"/>
  <g clip-path="url(#shapeClip_sec2)" fill="none">
    <line x1="0.00" y1="100.00" x2="100.00" y2="200.00" stroke="#000" stroke-width="0.8" stroke-linecap="round"/>
    <line x1="0.00" y1="97.00" x2="100.00" y2="197.00" stroke="#000" stroke-width="0.8" stroke-linecap="round"/>
    <line x1="0.00" y1="94.00" x2="100.00" y2="194.00" stroke="#000" stroke-width="0.8" stroke-linecap="round"/>
    <line x1="0.00" y1="91.00" x2="100.00" y2="191.00" stroke="#000" stroke-width="0.8" stroke-linecap="round"/>
    <line x1="0.00" y1="88.00" x2="100.00" y2="188.00" stroke="#000" stroke-width="0.8" stroke-linecap="round"/>
    <line x1="0.00" y1="85.00" x2="100.00" y2="185.00" stroke="#000" stroke-width="0.8" stroke-linecap="round"/>
    <line x1="0.00" y1="82.00" x2="100.00" y2="182.00" stroke="#000" stroke-width="0.8" stroke-linecap="round"/>
    <line x1="0.00" y1="79.00" x2="100.00" y2="179.00" stroke="#000" stroke-width="0.8" stroke-linecap="round"/>
    <line x1="0.00" y1="76.00" x2="100.00" y2="176.00" stroke="#000" stroke-width="0.8" stroke-linecap="round"/>
    <line x1="0.00" y1="73.00" x2="100.00" y2="173.00" stroke="#000" stroke-width="0.8" stroke-linecap="round"/>
    <line x1="0.00" y1="70.00" x2="100.00" y2="170.00" stroke="#000" stroke-width="0.8" stroke-linecap="round"/>
    <line x1="0.00" y1="67.00" x2="100.00" y2="167.00" stroke="#000" stroke-width="0.8" stroke-linecap="round"/>
    <line x1="0.00" y1="64.00" x2="100.00" y2="164.00" stroke="#000" stroke-width="0.8" stroke-linecap="round"/>
    <line x1="0.00" y1="61.00" x2="100.00" y2="161.00" stroke="#000" stroke-width="0.8" stroke-linecap="round"/>
    <line x1="0.00" y1="58.00" x2="100.00" y2="158.00" stroke="#000" stroke-width="0.8" stroke-linecap="round"/>
    <line x1="0.00" y1="55.00" x2="100.00" y2="155.00" stroke="#000" stroke-width="0.8" stroke-linecap="round"/>
    <line x1="0.00" y1="52.00" x2="100.00" y2="152.00" stroke="#000" stroke-width="0.8" stroke-linecap="round"/>
    <line x1="0.00" y1="49.00" x2="100.00" y2="149.00" stroke="#000" stroke-width="0.8" stroke-linecap="round"/>
    <line x1="0.00" y1="46.00" x2="100.00" y2="146.00" stroke="#000" stroke-width="0.8" stroke-linecap="round"/>
    <line x1="0.00" y1="43.00" x2="100.00" y2="143.00" stroke="#000" stroke-width="0.8" stroke-linecap="round"/>
    <line x1="0.00" y1="40.00" x2="100.00" y2="140.00" stroke="#000" stroke-width="0.8" stroke-linecap="round"/>
    <line x1="0.00" y1="37.00" x2="100.00" y2="137.00" stroke="#000" stroke-width="0.8" stroke-linecap="round"/>
    <line x1="0.00" y1="34.00" x2="100.00" y2="134.00" stroke="#000" stroke-width="0.8" stroke-linecap="round"/>
    <line x1="0.00" y1="31.00" x2="100.00" y2="131.00" stroke="#000" stroke-width="0.8" stroke-linecap="round"/>
    <line x1="0.00" y1="28.00" x2="100.00" y2="128.00" stroke="#000" stroke-width="0.8" stroke-linecap="round"/>
    <line x1="0.00" y1="25.00" x2="100.00" y2="125.00" stroke="#000" stroke-width="0.8" stroke-linecap="round"/>
    <line x1="0.00" y1="22.00" x2="100.00" y2="122.00" stroke="#000" stroke-width="0.8" stroke-linecap="round"/>
    <line x1="0.00" y1="19.00" x2="100.00" y2="119.00" stroke="#000" stroke-width="0.8" stroke-linecap="round"/>
    <line x1="0.00" y1="16.00" x2="100.00" y2="116.00" stroke="#000" stroke-width="0.8" stroke-linecap="round"/>
    <line x1="0.00" y1="13.00" x2="100.00" y2="113.00" stroke="#000" stroke-width="0.8" stroke-linecap="round"/>
    <line x1="0.00" y1="10.00" x2="100.00" y2="110.00" stroke="#000" stroke-width="0.8" stroke-linecap="round"/>
    <line x1="0.00" y1="7.00" x2="100.00" y2="107.00" stroke="#000" stroke-width="0.8" stroke-linecap="round"/>
    <line x1="0.00" y1="4.00" x2="100.00" y2="104.00" stroke="#000" stroke-width="0.8" stroke-linecap="round"/>
    <line x1="0.00" y1="1.00" x2="100.00" y2="101.00" stroke="#000" stroke-width="0.8" stroke-linecap="round"/>
    <line x1="0.00" y1="-2.00" x2="100.00" y2="98.00" stroke="#000" stroke-width="0.8" stroke-linecap="round"/>
    <line x1="0.00" y1="-5.00" x2="100.00" y2="95.00" stroke="#000" stroke-width="0.8" stroke-linecap="round"/>
    <line x1="0.00" y1="-8.00" x2="100.00" y2="92.00" stroke="#000" stroke-width="0.8" stroke-linecap="round"/>
    <line x1="0.00" y1="-11.00" x2="100.00" y2="89.00" stroke="#000" stroke-width="0.8" stroke-linecap="round"/>
    <line x1="0.00" y1="-14.00" x2="100.00" y2="86.00" stroke="#000" stroke-width="0.8" stroke-linecap="round"/>
    <line x1="0.00" y1="-17.00" x2="100.00" y2="83.00" stroke="#000" stroke-width="0.8" stroke-linecap="round"/>
    <line x1="0.00" y1="-20.00" x2="100.00" y2="80.00" stroke="#000" stroke-width="0.8" stroke-linecap="round"/>
    <line x1="0.00" y1="-23.00" x2="100.00" y2="77.00" stroke="#000" stroke-width="0.8" stroke-linecap="round"/>
    <line x1="0.00" y1="-26.00" x2="100.00" y2="74.00" stroke="#000" stroke-width="0.8" stroke-linecap="round"/>
    <line x1="0.00" y1="-29.00" x2="100.00" y2="71.00" stroke="#000" stroke-width="0.8" stroke-linecap="round"/>
    <line x1="0.00" y1="-32.00" x2="100.00" y2="68.00" stroke="#000" stroke-width="0.8" stroke-linecap="round"/>
    <line x1="0.00" y1="-35.00" x2="100.00" y2="65.00" stroke="#000" stroke-width="0.8" stroke-linecap="round"/>
    <line x1="0.00" y1="-38.00" x2="100.00" y2="62.00" stroke="#000" stroke-width="0.8" stroke-linecap="round"/>
    <line x1="0.00" y1="-41.00" x2="100.00" y2="59.00" stroke="#000" stroke-width="0.8" stroke-linecap="round"/>
    <line x1="0.00" y1="-44.00" x2="100.00" y2="56.00" stroke="#000" stroke-width="0.8" stroke-linecap="round"/>
    <line x1="0.00" y1="-47.00" x2="100.00" y2="53.00" stroke="#000" stroke-width="0.8" stroke-linecap="round"/>
    <line x1="0.00" y1="-50.00" x2="100.00" y2="50.00" stroke="#000" stroke-width="0.8" stroke-linecap="round"/>
    <line x1="0.00" y1="-53.00" x2="100.00" y2="47.00" stroke="#000" stroke-width="0.8" stroke-linecap="round"/>
    <line x1="0.00" y1="-56.00" x2="100.00" y2="44.00" stroke="#000" stroke-width="0.8" stroke-linecap="round"/>
    <line x1="0.00" y1="-59.00" x2="100.00" y2="41.00" stroke="#000" stroke-width="0.8" stroke-linecap="round"/>
    <line x1="0.00" y1="-62.00" x2="100.00" y2="38.00" stroke="#000" stroke-width="0.8" stroke-linecap="round"/>
    <line x1="0.00" y1="-65.00" x2="100.00" y2="35.00" stroke="#000" stroke-width="0.8" stroke-linecap="round"/>
    <line x1="0.00" y1="-68.00" x2="100.00" y2="32.00" stroke="#000" stroke-width="0.8" stroke-linecap="round"/>
    <line x1="0.00" y1="-71.00" x2="100.00" y2="29.00" stroke="#000" stroke-width="0.8" stroke-linecap="round"/>
    <line x1="0.00" y1="-74.00" x2="100.00" y2="26.00" stroke="#000" stroke-width="0.8" stroke-linecap="round"/>
    <line x1="0.00" y1="-77.00" x2="100.00" y2="23.00" stroke="#000" stroke-width="0.8" stroke-linecap="round"/>
    <line x1="0.00" y1="-80.00" x2="100.00" y2="20.00" stroke="#000" stroke-width="0.8" stroke-linecap="round"/>
    <line x1="0.00" y1="-83.00" x2="100.00" y2="17.00" stroke="#000" stroke-width="0.8" stroke-linecap="round"/>
    <line x1="0.00" y1="-86.00" x2="100.00" y2="14.00" stroke="#000" stroke-width="0.8" stroke-linecap="round"/>
    <line x1="0.00" y1="-89.00" x2="100.00" y2="11.00" stroke="#000" stroke-width="0.8" stroke-linecap="round"/>
    <line x1="0.00" y1="-92.00" x2="100.00" y2="8.00" stroke="#000" stroke-width="0.8" stroke-linecap="round"/>
    <line x1="0.00" y1="-95.00" x2="100.00" y2="5.00" stroke="#000" stroke-width="0.8" stroke-linecap="round"/>
    <line x1="0.00" y1="-98.00" x2="100.00" y2="2.00" stroke="#000" stroke-width="0.8" stroke-linecap="round"/>
    <line x1="0.00" y1="-101.00" x2="100.00" y2="-1.00" stroke="#000" stroke-width="0.8" stroke-linecap="round"/>
    <line x1="0.00" y1="-104.00" x2="100.00" y2="-4.00" stroke="#000" stroke-width="0.8" stroke-linecap="round"/>
    <line x1="0.00" y1="-107.00" x2="100.00" y2="-7.00" stroke="#000" stroke-width="0.8" stroke-linecap="round"/>
    <line x1="0.00" y1="-110.00" x2="100.00" y2="-10.00" stroke="#000" stroke-width="0.8" stroke-linecap="round"/>
    <line x1="0.00" y1="-113.00" x2="100.00" y2="-13.00" stroke="#000" stroke-width="0.8" stroke-linecap="round"/>
    <line x1="0.00" y1="-116.00" x2="100.00" y2="-16.00" stroke="#000" stroke-width="0.8" stroke-linecap="round"/>
    <line x1="0.00" y1="-119.00" x2="100.00" y2="-19.00" stroke="#000" stroke-width="0.8" stroke-linecap="round"/>
    <line x1="0.00" y1="-122.00" x2="100.00" y2="-22.00" stroke="#000" stroke-width="0.8" stroke-linecap="round"/>
    <line x1="0.00" y1="-125.00" x2="100.00" y2="-25.00" stroke="#000" stroke-width="0.8" stroke-linecap="round"/>
    <line x1="0.00" y1="-128.00" x2="100.00" y2="-28.00" stroke="#000" stroke-width="0.8" stroke-linecap="round"/>
    <line x1="0.00" y1="-131.00" x2="100.00" y2="-31.00" stroke="#000" stroke-width="0.8" stroke-linecap="round"/>
    <line x1="0.00" y1="-134.00" x2="100.00" y2="-34.00" stroke="#000" stroke-width="0.8" stroke-linecap="round"/>
    <line x1="0.00" y1="-137.00" x2="100.00" y2="-37.00" stroke="#000" stroke-width="0.8" stroke-linecap="round"/>
    <line x1="0.00" y1="-140.00" x2="100.00" y2="-40.00" stroke="#000" stroke-width="0.8" stroke-linecap="round"/>
    <line x1="0.00" y1="-143.00" x2="100.00" y2="-43.00" stroke="#000" stroke-width="0.8" stroke-linecap="round"/>
    <line x1="0.00" y1="-146.00" x2="100.00" y2="-46.00" stroke="#000" stroke-width="0.8" stroke-linecap="round"/>
    <line x1="0.00" y1="-149.00" x2="100.00" y2="-49.00" stroke="#000" stroke-width="0.8" stroke-linecap="round"/>
    <line x1="0.00" y1="-152.00" x2="100.00" y2="-52.00" stroke="#000" stroke-width="0.8" stroke-linecap="round"/>
    <line x1="0.00" y1="-155.00" x2="100.00" y2="-55.00" stroke="#000" stroke-width="0.8" stroke-linecap="round"/>
    <line x1="0.00" y1="-158.00" x2="100.00" y2="-58.00" stroke="#000" stroke-width="0.8" stroke-linecap="round"/>
    <line x1="0.00" y1="-161.00" x2="100.00" y2="-61.00" stroke="#000" stroke-width="0.8" stroke-linecap="round"/>
    <line x1="0.00" y1="-164.00" x2="100.00" y2="-64.00" stroke="#000" stroke-width="0.8" stroke-linecap="round"/>
    <line x1="0.00" y1="-167.00" x2="100.00" y2="-67.00" stroke="#000" stroke-width="0.8" stroke-linecap="round"/>
    <line x1="0.00" y1="-170.00" x2="100.00" y2="-70.00" stroke="#000" stroke-width="0.8" stroke-linecap="round"/>
    <line x1="0.00" y1="-173.00" x2="100.00" y2="-73.00" stroke="#000" stroke-width="0.8" stroke-linecap="round"/>
    <line x1="0.00" y1="-176.00" x2="100.00" y2="-76.00" stroke="#000" stroke-width="0.8" stroke-linecap="round"/>
    <line x1="0.00" y1="-179.00" x2="100.00" y2="-79.00" stroke="#000" stroke-width="0.8" stroke-linecap="round"/>
    <line x1="0.00" y1="-182.00" x2="100.00" y2="-82.00" stroke="#000" stroke-width="0.8" stroke-linecap="round"/>
    <line x1="0.00" y1="-185.00" x2="100.00" y2="-85.00" stroke="#000" stroke-width="0.8" stroke-linecap="round"/>
    <line x1="0.00" y1="-188.00" x2="100.00" y2="-88.00" stroke="#000" stroke-width="0.8" stroke-linecap="round"/>
    <line x1="0.00" y1="-191.00" x2="100.00" y2="-91.00" stroke="#000" stroke-width="0.8" stroke-linecap="round"/>
    <line x1="0.00" y1="-194.00" x2="100.00" y2="-94.00" stroke="#000" stroke-width="0.8" stroke-linecap="round"/>
    <line x1="0.00" y1="-197.00" x2="100.00" y2="-97.00" stroke="#000" stroke-width="0.8" stroke-linecap="round"/>
    <line x1="0.00" y1="-200.00" x2="100.00" y2="-100.00" stroke="#000" stroke-width="0.8" stroke-linecap="round"/>
  </g>
  <path d="M 17.00 17.00 L 83.00 17.00 L 83.00 83.00 L 17.00 83.00 Z M 30.20 30.20 L 69.80 30.20 L 69.80 69.80 L 30.20 69.80 Z" fill="#808080" stroke="none" fill-rule="evenodd"/>
  </g>
  <path d="M17 17 L83 17 L83 83 L17 83 Z" fill="none" stroke-width="2"  />
  <g clip-path="url(#shapeClip)">
  <line x1="40.10" y1="40.10" x2="59.90" y2="40.10" stroke="#000" stroke-width="0.8" stroke-linecap="round"/>
  <line x1="59.90" y1="40.10" x2="59.90" y2="59.90" stroke="#000" stroke-width="0.8" stroke-linecap="round"/>
  <line x1="59.90" y1="59.90" x2="40.10" y2="59.90" stroke="#000" stroke-width="0.8" stroke-linecap="round"/>
  <line x1="40.10" y1="59.90" x2="40.10" y2="40.10" stroke="#000" stroke-width="0.8" stroke-linecap="round"/>
  <line x1="36.80" y1="36.80" x2="63.20" y2="36.80" stroke="#000" stroke-width="0.8" stroke-linecap="round"/>
  <line x1="63.20" y1="36.80" x2="63.20" y2="63.20" stroke="#000" stroke-width="0.8" stroke-linecap="round"/>
  <line x1="63.20" y1="63.20" x2="36.80" y2="63.20" stroke="#000" stroke-width="0.8" stroke-linecap="round"/>
  <line x1="36.80" y1="63.20" x2="36.80" y2="36.80" stroke="#000" stroke-width="0.8" stroke-linecap="round"/>
  <line x1="30.20" y1="30.20" x2="69.80" y2="30.20" stroke="#000" stroke-width="0.8" stroke-linecap="round"/>
  <line x1="69.80" y1="30.20" x2="69.80" y2="69.80" stroke="#000" stroke-width="0.8" stroke-linecap="round"/>
  <line x1="69.80" y1="69.80" x2="30.20" y2="69.80" stroke="#000" stroke-width="0.8" stroke-linecap="round"/>
  <line x1="30.20" y1="69.80" x2="30.20" y2="30.20" stroke="#000" stroke-width="0.8" stroke-linecap="round"/>
  </g>
</svg>