<svg xmlns="http://www.w3.org/2000/svg" viewBox="0 0 100 100" fill="none" stroke="#000" stroke-linecap="round" stroke-linejoin="round">
  <!-- hexagon container, solid, fill; 0 none motifs -->
  <defs><clipPath id="shapeClip"><path d="M 70.00 15.36 L 90.00 50.00 L 70.00 84.64 L 30.00 84.64 L 10.00 50.00 L 30.00 15.36 Z"/></clipPath></defs>
  <path d="M 70.00 15.36 L 90.00 50.00 L 70.00 84.64 L 30.00 84.64 L 10.00 50.00 L 30.00 15.36 Z" fill="none" stroke-width="2"  />
  <g clip-path="url(#shapeClip)">
  <path d="M 50.00 50.00 L 70.00 15.36 L 90.00 50.00 Z" fill="none" stroke="none"/>
  <path d="M 50.00 50.00 L 90.00 50.00 L 70.00 84.64 Z" fill="#808080" stroke="none"/>
  <path d="M 50.00 50.00 L 70.00 84.64 L 30.00 84.64 Z" fill="none" stroke="none"/>
  <path d="M 50.00 50.00 L 30.00 84.64 L 10.00 50.00 Z" fill="#808080" stroke="none"/>
  <path d="M 50.00 50.00 L 10.00 50.00 L 30.00 15.36 Z" fill="none" stroke="none"/>
  <path d="M 50.00 50.00 L 30.00 15.36 L 70.00 15.36 Z" fill="#808080" stroke="none"/>
  </g>
  <path d="M 70.00 15.36 L 90.00 50.00 L 70.00 84.64 L 30.00 84.64 L 10.00 50.00 L 30.00 15.36 Z" fill="none" stroke-width="2"  />
  <g clip-path="url(#shapeClip)">
  <line x1="50.00" y1="50.00" x2="90.00" y2="50.00" stroke="#000" stroke-width="0.8" stroke-linecap="round"/>
  <line x1="50.00" y1="50.00" x2="70.00" y2="84.64" stroke="#000" stroke-width="0.8" stroke-linecap="round"/>
  <line x1="50.00" y1="50.00" x2="30.00" y2="84.64" stroke="#000" stroke-width="0.8" stroke-linecap="round"/>
  <line x1="50.00" y1="50.00" x2="10.00" y2="50.00" stroke="#000" stroke-width="0.8" stroke-linecap="round"/>
  <line x1="50.00" y1="50.00" x2="30.00" y2="15.36" stroke="#000" stroke-width="0.8" stroke-linecap="round"/>
  <line x1="50.00" y1="50.00" x2="70.00" y2="15.36" stroke="#000" stroke-width="0.8" stroke-linecap="round"/>
  </g>
</svg>