<svg xmlns="http://www.w3.org/2000/svg" viewBox="0 0 100 100" fill="none" stroke="#000" stroke-linecap="round" stroke-linejoin="round">
  <!-- pentagon container, solid, fill; 0 none motifs -->
  <defs><clipPath id="shapeClip"><path d="M 50.00 12.00 L 86.14 38.26 L 72.34 80.74 L 27.66 80.74 L 13.86 38.26 Z"/></clipPath></defs>
  <path d="M 50.00 12.00 L 86.14 38.26 L 72.34 80.74 L 27.66 80.74 L 13.86 38.26 Z" fill="none" stroke-width="2"  />
  <g clip-path="url(#shapeClip)">
  <path d="M 50.00 50.00 L 50.00 12.00 L 86.14 38.26 Z" fill="none" stroke="none"/>
  <path d="M 50.00 50.00 L 86.14 38.26 L 72.34 80.74 Z" fill="#000" stroke="none"/>
  <path d="M 50.00 50.00 L 72.34 80.74 L 27.66 80.74 Z" fill="#808080" stroke="none"/>
  <path d="M 50.00 50.00 L 27.66 80.74 L 13.86 38.26 Z" fill="#000" stroke="none"/>
  <path d="M 50.00 50.00 L 13.86 38.26 L 50.00 12.00 Z" fill="none" stroke="none"/>
  </g>
  <path d="M 50.00 12.00 L 86.14 38.26 L 72.34 80.74 L 27.66 80.74 L 13.86 38.26 Z" fill="none" stroke-width="2"  />
  <g clip-path="url(#shapeClip)">
  <line x1="50.00" y1="50.00" x2="86.14" y2="38.26" stroke="#000" stroke-width="0.8" stroke-linecap="round"/>
  <line x1="50.00" y1="50.00" x2="72.34" y2="80.74" stroke="#000" stroke-width="0.8" stroke-linecap="round"/>
  <line x1="50.00" y1="50.00" x2="27.66" y2="80.74" stroke="#000" stroke-width="0.8" stroke-linecap="round"/>
  <line x1="50.00" y1="50.00" x2="13.86" y2="38.26" stroke="#000" stroke-width="0.8" stroke-linecap="round"/>
  <line x1="50.00" y1="50.00" x2="50.00" y2="12.00" stroke="#000" stroke-width="0.8" stroke-linecap="round"/>
  </g>
</svg>