<svg xmlns="http://www.w3.org/2000/svg" viewBox="0 0 100 100" fill="none" stroke="#000" stroke-linecap="round" stroke-linejoin="round">
  <!-- club container, solid, fill; 0 none motifs -->
  <defs><clipPath id="shapeClip"><path d="M 38 41 A 18 18 0 1 1 62 41 A 18 18 0 1 1 63 73 C 58 75 53 80 66 90 H 34 C 47 80 42 75 37 73 A 18 18 0 1 1 38 41 Z" fill="none" stroke-width="2"/></clipPath></defs>
  <defs><clipPath id="shapeClip_sec0"><path d="M 44.00 45.40 A 9.00 9.00 0.00 1 1 56.00 45.40 A 9.00 9.00 0.00 1 1 56.50 61.40 C 54.00 62.40 51.50 64.90 58.00 69.90 L 42.00 69.90 C 48.50 64.90 46.00 62.40 43.50 61.40 A 9.00 9.00 0.00 1 1 44.00 45.40 Z"/></clipPath></defs>
  <defs><clipPath id="shapeClip_sec1" clip-rule="evenodd"><path d="M 38.00 41.00 A 18.00 18.00 0.00 1 1 62.00 41.00 A 18.00 18.00 0.00 1 1 63.00 73.00 C 58.00 75.00 53.00 80.00 66.00 90.00 L 34.00 90.00 C 47.00 80.00 42.00 75.00 37.00 73.00 A 18.00 18.00 0.00 1 1 38.00 41.00 Z"/><path d="M 44.00 45.40 A 9.00 9.00 0.00 1 1 56.00 45.40 A 9.00 9.00 0.00 1 1 56.50 61.40 C 54.00 62.40 51.50 64.90 58.00 69.90 L 42.00 69.90 C 48.50 64.90 46.00 62.40 43.50 61.40 A 9.00 9.00 0.00 1 1 44.00 45.40 Z"/></clipPath></defs>
  <path d="M 38 41 A 18 18 0 1 1 62 41 A 18 18 0 1 1 63 73 C 58 75 53 80 66 90 H 34 C 47 80 42 75 37 73 A 18 18 0 1 1 38 41 Z" fill="none" stroke-width="2"  />
  <g clip-path="url(#shapeClip)">
  <rect x="0" y="0" width="100" height="100" fill="#808080" stroke="none" clip-path="url(#shapeClip_sec1)"/>
  <rect x="0" y="0" width="100" height="100" fill="#fff" stroke="none" clip-path="url(#shapeClip_sec0)"/>
  </g>
  <path d="M 38 41 A 18 18 0 1 1 62 41 A 18 18 0 1 1 63 73 C 58 75 53 80 66 90 H 34 C 47 80 42 75 37 73 A 18 18 0 1 1 38 41 Z" fill="none" stroke-width="2"  />
  <g clip-path="url(#shapeClip)">
  <path d="M 44.00 45.40 A 9.00 9.00 0.00 1 1 56.00 45.40 A 9.00 9.00 0.00 1 1 56.50 61.40 C 54.00 62.40 51.50 64.90 58.00 69.90 L 42.00 69.90 C 48.50 64.90 46.00 62.40 43.50 61.40 A 9.00 9.00 0.00 1 1 44.00 45.40 Z" fill="none" stroke="#000" stroke-width="0.8" stroke-linecap="round" stroke-linejoin="round"/>
  </g>
</svg>