<svg xmlns="http://www.w3.org/2000/svg" viewBox="0 0 100 100" fill="none" stroke="#000" stroke-linecap="round" stroke-linejoin="round">
  <!-- spade container, solid, fill; 0 none motifs -->
  <defs><clipPath id="shapeClip"><path d="M50 10 C30 35 12 50 12 70 C12 85 30 90 45 80 C45 80 48 85 40 95 H60 C52 85 55 80 55 80 C70 90 88 85 88 70 C88 50 70 35 50 10 Z" fill="none" stroke-width="2"/></clipPath></defs>
  <path d="M50 10 C30 35 12 50 12 70 C12 85 30 90 45 80 C45 80 48 85 40 95 H60 C52 85 55 80 55 80 C70 90 88 85 88 70 C88 50 70 35 50 10 Z" fill="none" stroke-width="2"  />
  <g clip-path="url(#shapeClip)">
  <path d="M 50.00 10.00 L 50.00 10.00 L 50.00 10.00 L 50.00 95.00 L 40.00 95.00 L 44.16 88.44 L 45.50 83.75 L 45.34 80.94 L 45.00 80.00 L 33.52 84.77 L 22.88 84.38 L 15.05 79.30 L 12.00 70.00 L 15.12 55.70 L 23.50 41.88 L 35.62 27.11 L 50.00 10.00 Z" fill="#808080" stroke="none"/>
  <path d="M 50.00 10.00 L 50.00 10.00 L 64.38 27.11 L 76.50 41.88 L 84.88 55.70 L 88.00 70.00 L 84.95 79.30 L 77.12 84.38 L 66.48 84.77 L 55.00 80.00 L 54.66 80.94 L 54.50 83.75 L 55.84 88.44 L 60.00 95.00 L 50.00 95.00 L 50.00 10.00 L 50.00 10.00 Z" fill="none" stroke="none"/>
  </g>
  <path d="M50 10 C30 35 12 50 12 70 C12 85 30 90 45 80 C45 80 48 85 40 95 H60 C52 85 55 80 55 80 C70 90 88 85 88 70 C88 50 70 35 50 10 Z" fill="none" stroke-width="2"  />
  <g clip-path="url(#shapeClip)">
  <line x1="50.00" y1="10.00" x2="50.00" y2="95.00" stroke="#000" stroke-width="0.8" stroke-linecap="round"/>
  </g>
</svg>