<svg xmlns="http://www.w3.org/2000/svg" viewBox="0 0 100 100" fill="none" stroke="#000" stroke-linecap="round" stroke-linejoin="round">
  <!-- triangle container, solid, fill; 0 none motifs -->
  <defs><clipPath id="shapeClip"><path d="M 50.00 12.50 L 93.30 87.50 L 6.70 87.50 Z"/></clipPath></defs>
  <defs><clipPath id="shapeClip_sec1"><path d="M 50.00 12.50 L 93.30 87.50 L 50.00 87.50 Z"/></clipPath></defs>
  <path d="M 50.00 12.50 L 93.30 87.50 L 6.70 87.50 Z" fill="none" stroke-width="2"  />
  <g clip-path="url(#shapeClip)">
  <path d="M 50.00 12.50 L 50.00 12.50 L 50.00 87.50 L 6.70 87.50 Z" fill="none" stroke="none"/>
  <g clip-path="url(#shapeClip_sec1)" fill="none">
    <line x1="0.00" y1="0.00" x2="0.00" y2="100.00" stroke="#000" stroke-width="0.8" stroke-linecap="round"/>
    <line x1="2.00" y1="0.00" x2="2.00" y2="100.00" stroke="#000" stroke-width="0.8" stroke-linecap="round"/>
    <line x1="4.00" y1="0.00" x2="4.00" y2="100.00" stroke="#000" stroke-width="0.8" stroke-linecap="round"/>
    <line x1="6.00" y1="0.00" x2="6.00" y2="100.00" stroke="#000" stroke-width="0.8" stroke-linecap="round"/>
    <line x1="8.00" y1="0.00" x2="8.00" y2="100.00" stroke="#000" stroke-width="0.8" stroke-linecap="round"/>
    <line x1="10.00" y1="0.00" x2="10.00" y2="100.00" stroke="#000" stroke-width="0.8" stroke-linecap="round"/>
    <line x1="12.00" y1="0.00" x2="12.00" y2="100.00" stroke="#000" stroke-width="0.8" stroke-linecap="round"/>
    <line x1="14.00" y1="0.00" x2="14.00" y2="100.00" stroke="#000" stroke-width="0.8" stroke-linecap="round"/>
    <line x1="16.00" y1="0.00" x2="16.00" y2="100.00" stroke="#000" stroke-width="0.8" stroke-linecap="round"/>
    <line x1="18.00" y1="0.00" x2="18.00" y2="100.00" stroke="#000" stroke-width="0.8" stroke-linecap="round"/>
    <line x1="20.00" y1="0.00" x2="20.00" y2="100.00" stroke="#000" stroke-width="0.8" stroke-linecap="round"/>
    <line x1="22.00" y1="0.00" x2="22.00" y2="100.00" stroke="#000" stroke-width="0.8" stroke-linecap="round"/>
    <line x1="24.00" y1="0.00" x2="24.00" y2="100.00" stroke="#000" stroke-width="0.8" stroke-linecap="round"/>
    <line x1="26.00" y1="0.00" x2="26.00" y2="100.00" stroke="#000" stroke-width="0.8" stroke-linecap="round"/>
    <line x1="28.00" y1="0.00" x2="28.00" y2="100.00" stroke="#000" stroke-width="0.8" stroke-linecap="round"/>
    <line x1="30.00" y1="0.00" x2="30.00" y2="100.00" stroke="#000" stroke-width="0.8" stroke-linecap="round"/>
    <line x1="32.00" y1="0.00" x2="32.00" y2="100.00" stroke="#000" stroke-width="0.8" stroke-linecap="round"/>
    <line x1="34.00" y1="0.00" x2="34.00" y2="100.00" stroke="#000" stroke-width="0.8" stroke-linecap="round"/>
    <line x1="36.00" y1="0.00" x2="36.00" y2="100.00" stroke="#000" stroke-width="0.8" stroke-linecap="round"/>
    <line x1="38.00" y1="0.00" x2="38.00" y2="100.00" stroke="#000" stroke-width="0.8" stroke-linecap="round"/>
    <line x1="40.00" y1="0.00" x2="40.00" y2="100.00" stroke="#000" stroke-width="0.8" stroke-linecap="round"/>
    <line x1="42.00" y1="0.00" x2="42.00" y2="100.00" stroke="#000" stroke-width="0.8" stroke-linecap="round"/>
    <line x1="44.00" y1="0.00" x2="44.00" y2="100.00" stroke="#000" stroke-width="0.8" stroke-linecap="round"/>
    <line x1="46.00" y1="0.00" x2="46.00" y2="100.00" stroke="#000" stroke-width="0.8" stroke-linecap="round"/>
    <line x1="48.00" y1="0.00" x2="48.00" y2="100.00" stroke="#000" stroke-width="0.8" stroke-linecap="round"/>
    <line x1="50.00" y1="0.00" x2="50.00" y2="100.00" stroke="#000" stroke-width="0.8" stroke-linecap="round"/>
    <line x1="52.00" y1="0.00" x2="52.00" y2="100.00" stroke="#000" stroke-width="0.8" stroke-linecap="round"/>
    <line x1="54.00" y1="0.00" x2="54.00" y2="100.00" stroke="#000" stroke-width="0.8" stroke-linecap="round"/>
    <line x1="56.00" y1="0.00" x2="56.00" y2="100.00" stroke="#000" stroke-width="0.8" stroke-linecap="round"/>
    <line x1="58.00" y1="0.00" x2="58.00" y2="100.00" stroke="#000" stroke-width="0.8" stroke-linecap="round"/>
    <line x1="60.00" y1="0.00" x2="60.00" y2="100.00" stroke="#000" stroke-width="0.8" stroke-linecap="round"/>
    <line x1="62.00" y1="0.00" x2="62.00" y2="100.00" stroke="#000" stroke-width="0.8" stroke-linecap="round"/>
    <line x1="64.00" y1="0.00" x2="64.00" y2="100.00" stroke="#000" stroke-width="0.8" stroke-linecap="round"/>
    <line x1="66.00" y1="0.00" x2="66.00" y2="100.00" stroke="#000" stroke-width="0.8" stroke-linecap="round"/>
    <line x1="68.00" y1="0.00" x2="68.00" y2="100.00" stroke="#000" stroke-width="0.8" stroke-linecap="round"/>
    <line x1="70.00" y1="0.00" x2="70.00" y2="100.00" stroke="#000" stroke-width="0.8" stroke-linecap="round"/>
    <line x1="72.00" y1="0.00" x2="72.00" y2="100.00" stroke="#000" stroke-width="0.8" stroke-linecap="round"/>
    <line x1="74.00" y1="0.00" x2="74.00" y2="100.00" stroke="#000" stroke-width="0.8" stroke-linecap="round"/>
    <line x1="76.00" y1="0.00" x2="76.00" y2="100.00" stroke="#000" stroke-width="0.8" stroke-linecap="round"/>
    <line x1="78.00" y1="0.00" x2="78.00" y2="100.00" stroke="#000" stroke-width="0.8" stroke-linecap="round"/>
    <line x1="80.00" y1="0.00" x2="80.00" y2="100.00" stroke="#000" stroke-width="0.8" stroke-linecap="round"/>
    <line x1="82.00" y1="0.00" x2="82.00" y2="100.00" stroke="#000" stroke-width="0.8" stroke-linecap="round"/>
    <line x1="84.00" y1="0.00" x2="84.00" y2="100.00" stroke="#000" stroke-width="0.8" stroke-linecap="round"/>
    <line x1="86.00" y1="0.00" x2="86.00" y2="100.00" stroke="#000" stroke-width="0.8" stroke-linecap="round"/>
    <line x1="88.00" y1="0.00" x2="88.00" y2="100.00" stroke="#000" stroke-width="0.8" stroke-linecap="round"/>
    <line x1="90.00" y1="0.00" x2="90.00" y2="100.00" stroke="#000" stroke-width="0.8" stroke-linecap="round"/>
    <line x1="92.00" y1="0.00" x2="92.00" y2="100.00" stroke="#000" stroke-width="0.8" stroke-linecap="round"/>
    <line x1="94.00" y1="0.00" x2="94.00" y2="100.00" stroke="#000" stroke-width="0.8" stroke-linecap="round"/>
    <line x1="96.00" y1="0.00" x2="96.00" y2="100.00" stroke="#000" stroke-width="0.8" stroke-linecap="round"/>
    <line x1="98.00" y1="0.00" x2="98.00" y2="100.00" stroke="#000" stroke-width="0.8" stroke-linecap="round"/>
    <line x1="100.00" y1="0.00" x2="100.00" y2="100.00" stroke="#000" stroke-width="0.8" stroke-linecap="round"/>
  </g>
  </g>
  <path d="M 50.00 12.50 L 93.30 87.50 L 6.70 87.50 Z" fill="none" stroke-width="2"  />
  <g clip-path="url(#shapeClip)">
  <line x1="50.00" y1="12.50" x2="50.00" y2="87.50" stroke="#000" stroke-width="0.8" stroke-linecap="round"/>
  </g>
</svg>