<svg xmlns="http://www.w3.org/2000/svg" viewBox="0 0 100 100" fill="none" stroke="#000" stroke-linecap="round" stroke-linejoin="round">
  <!-- plus container, solid, fill; 0 none motifs -->
  <defs><clipPath id="shapeClip"><path d="M 40 20 A 10 10 0 0 1 60 20 V 40 H 80 A 10 10 0 0 1 80 60 H 60 V 80 A 10 10 0 0 1 40 80 V 60 H 20 A 10 10 0 0 1 20 40 H 40 Z" fill="none" stroke-width="2"/></clipPath></defs>
  <defs><clipPath id="shapeClip_sec0"><path d="M 46.67 40.00 A 3.33 3.33 0.00 0 1 53.33 40.00 L 53.33 46.67 L 60.00 46.67 A 3.33 3.33 0.00 0 1 60.00 53.33 L 53.33 53.33 L 53.33 60.00 A 3.33 3.33 0.00 0 1 46.67 60.00 L 46.67 53.33 L 40.00 53.33 A 3.33 3.33 0.00 0 1 40.00 46.67 L 46.67 46.67 Z"/></clipPath></defs>
  <defs><clipPath id="shapeClip_sec1" clip-rule="evenodd"><path d="M 43.33 30.00 A 6.67 6.67 0.00 0 1 56.67 30.00 L 56.67 43.33 L 70.00 43.33 A 6.67 6.67 0.00 0 1 70.00 56.67 L 56.67 56.67 L 56.67 70.00 A 6.67 6.67 0.00 0 1 43.33 70.00 L 43.33 56.67 L 30.00 56.67 A 6.67 6.67 0.00 0 1 30.00 43.33 L 43.33 43.33 Z"/><path d="M 46.67 40.00 A 3.33 3.33 0.00 0 1 53.33 40.00 L 53.33 46.67 L 60.00 46.67 A 3.33 3.33 0.00 0 1 60.00 53.33 L 53.33 53.33 L 53.33 60.00 A 3.33 3.33 0.00 0 1 46.67 60.00 L 46.67 53.33 L 40.00 53.33 A 3.33 3.33 0.00 0 1 40.00 46.67 L 46.67 46.67 Z"/></clipPath></defs>
  <defs><clipPath id="shapeClip_sec2" clip-rule="evenodd"><path d="M 40.00 20.00 A 10.00 10.00 0.00 0 1 60.00 20.00 L 60.00 40.00 L 80.00 40.00 A 10.00 10.00 0.00 0 1 80.00 60.00 L 60.00 60.00 L 60.00 80.00 A 10.00 10.00 0.00 0 1 40.00 80.00 L 40.00 60.00 L 20.00 60.00 A 10.00 10.00 0.00 0 1 20.00 40.00 L 40.00 40.00 Z"/><path d="M 43.33 30.00 A 6.67 6.67 0.00 0 1 56.67 30.00 L 56.67 43.33 L 70.00 43.33 A 6.67 6.67 0.00 0 1 70.00 56.67 L 56.67 56.67 L 56.67 70.00 A 6.67 6.67 0.00 0 1 43.33 70.00 L 43.33 56.67 L 30.00 56.67 A 6.67 6.67 0.00 0 1 30.00 43.33 L 43.33 43.33 Z"/></clipPath></defs>
  <path d="M 40 20 A 10 10 0 0 1 60 20 V 40 H 80 A 10 10 0 0 1 80 60 H 60 V 80 A 10 10 0 0 1 40 80 V 60 H 20 A 10 10 0 0 1 20 40 H 40 Z" fill="none" stroke-width="2"  />
  <g clip-path="url(#shapeClip)">
  <rect x="0" y="0" width="100" height="100" fill="none" stroke="none" clip-path="url(#shapeClip_sec2)"/>
  <rect x="0" y="0" width="100" height="100" fill="#808080" stroke="none" clip-path="url(#shapeClip_sec1)"/>
  <rect x="0" y="0" width="100" height="100" fill="#fff" stroke="none" clip-path="url(#shapeClip_sec0)"/>
  </g>
  <path d="M 40 20 A 10 10 0 0 1 60 20 V 40 H 80 A 10 10 0 0 1 80 60 H 60 V 80 A 10 10 0 0 1 40 80 V 60 H 20 A 10 10 0 0 1 20 40 H 40 Z" fill="none" stroke-width="2"  />
  <g clip-path="url(#shapeClip)">
  <path d="M 46.67 40.00 A 3.33 3.33 0.00 0 1 53.33 40.00 L 53.33 46.67 L 60.00 46.67 A 3.33 3.33 0.00 0 1 60.00 53.33 L 53.33 53.33 L 53.33 60.00 A 3.33 3.33 0.00 0 1 46.67 60.00 L 46.67 53.33 L 40.00 53.33 A 3.33 3.33 0.00 0 1 40.00 46.67 L 46.67 46.67 Z" fill="none" stroke="#000" stroke-width="0.8" stroke-linecap="round" stroke-linejoin="round"/>
  <path d="M 43.33 30.00 A 6.67 6.67 0.00 0 1 56.67 30.00 L 56.67 43.33 L 70.00 43.33 A 6.67 6.67 0.00 0 1 70.00 56.67 L 56.67 56.67 L 56.67 70.00 A 6.67 6.67 0.00 0 1 43.33 70.00 L 43.33 56.67 L 30.00 56.67 A 6.67 6.67 0.00 0 1 30.00 43.33 L 43.33 43.33 Z" fill="none" stroke="#000" stroke-width="0.8" stroke-linecap="round" stroke-linejoin="round"/>
  </g>
</svg>