<svg xmlns="http://www.w3.org/2000/svg" viewBox="0 0 100 100" fill="none" stroke="#000" stroke-linecap="round" stroke-linejoin="round">
  <!-- heart container, solid, fill; 0 none motifs -->
  <defs><clipPath id="shapeClip"><path d="M50 30 C50 10 15 10 15 40 C15 70 50 90 50 90 C50 90 85 70 85 40 C85 10 50 10 50 30 Z" fill="none" stroke-width="2"/></clipPath></defs>
  <path d="M50 30 C50 10 15 10 15 40 C15 70 50 90 50 90 C50 90 85 70 85 40 C85 10 50 10 50 30 Z" fill="none" stroke-width="2"  />
  <g clip-path="url(#shapeClip)">
  <path d="M 0.00 0.00 L 50.00 0.00 L 50.00 48.60 L 0.00 48.60 Z" fill="none" stroke="none"/>
  <path d="M 50.00 0.00 L 100.00 0.00 L 100.00 48.60 L 50.00 48.60 Z" fill="#808080" stroke="none"/>
  <path d="M 50.00 48.60 L 100.00 48.60 L 100.00 100.00 L 50.00 100.00 Z" fill="none" stroke="none"/>
  <path d="M 0.00 48.60 L 50.00 48.60 L 50.00 100.00 L 0.00 100.00 Z" fill="#808080" stroke="none"/>
  </g>
  <path d="M50 30 C50 10 15 10 15 40 C15 70 50 90 50 90 C50 90 85 70 85 40 C85 10 50 10 50 30 Z" fill="none" stroke-width="2"  />
  <g clip-path="url(#shapeClip)">
  <line x1="50.00" y1="0.00" x2="50.00" y2="100.00" stroke="#000" stroke-width="0.8" stroke-linecap="round"/>
  <line x1="0.00" y1="48.60" x2="100.00" y2="48.60" stroke="#000" stroke-width="0.8" stroke-linecap="round"/>
  <line x1="0.00" y1="48.60" x2="100.00" y2="48.60" stroke="#000" stroke-width="0.8" stroke-linecap="round"/>
  <line x1="50.00" y1="0.00" x2="50.00" y2="100.00" stroke="#000" stroke-width="0.8" stroke-linecap="round"/>
  </g>
</svg>