<svg xmlns="http://www.w3.org/2000/svg" viewBox="0 0 100 100" fill="none" stroke="#000" stroke-linecap="round" stroke-linejoin="round">
  <!-- times container, solid, fill; 0 none motifs -->
  <defs><clipPath id="shapeClip"><path d="M 64.14 21.72 A 10.00 10.00 45.00 0 1 78.28 35.86 L 64.14 50.00 L 78.28 64.14 A 10.00 10.00 45.00 0 1 64.14 78.28 L 50.00 64.14 L 35.86 78.28 A 10.00 10.00 45.00 0 1 21.72 64.14 L 35.86 50.00 L 21.72 35.86 A 10.00 10.00 45.00 0 1 35.86 21.72 L 50.00 35.86 Z"/></clipPath></defs>
  <g transform="rotate(45 50 50)">
  <path d="M 40 20 A 10 10 0 0 1 60 20 V 40 H 80 A 10 10 0 0 1 80 60 H 60 V 80 A 10 10 0 0 1 40 80 V 60 H 20 A 10 10 0 0 1 20 40 H 40 Z" fill="none" stroke-width="2"  />
  </g>
  <g clip-path="url(#shapeClip)">
  <path d="M 0.00 0.00 L 50.00 0.00 L 50.00 50.00 L 0.00 50.00 Z" fill="none" stroke="none"/>
  <path d="M 50.00 0.00 L 100.00 0.00 L 100.00 50.00 L 50.00 50.00 Z" fill="#808080" stroke="none"/>
  <path d="M 50.00 50.00 L 100.00 50.00 L 100.00 100.00 L 50.00 100.00 Z" fill="none" stroke="none"/>
  <path d="M 0.00 50.00 L 50.00 50.00 L 50.00 100.00 L 0.00 100.00 Z" fill="#808080" stroke="none"/>
  </g>
  <g transform="rotate(45 50 50)">
  <path d="M 40 20 A 10 10 0 0 1 60 20 V 40 H 80 A 10 10 0 0 1 80 60 H 60 V 80 A 10 10 0 0 1 40 80 V 60 H 20 A 10 10 0 0 1 20 40 H 40 Z" fill="none" stroke-width="2"  />
  </g>
  <g clip-path="url(#shapeClip)">
  <line x1="50.00" y1="0.00" x2="50.00" y2="100.00" stroke="#000" stroke-width="0.8" stroke-linecap="round"/>
  <line x1="0.00" y1="50.00" x2="100.00" y2="50.00" stroke="#000" stroke-width="0.8" stroke-linecap="round"/>
  <line x1="0.00" y1="50.00" x2="100.00" y2="50.00" stroke="#000" stroke-width="0.8" stroke-linecap="round"/>
  <line x1="50.00" y1="0.00" x2="50.00" y2="100.00" stroke="#000" stroke-width="0.8" stroke-linecap="round"/>
  </g>
</svg>