<svg xmlns="http://www.w3.org/2000/svg" viewBox="0 0 100 100" fill="none" stroke="#000" stroke-linecap="round" stroke-linejoin="round">
  <!-- cross container, solid, fill; 0 none motifs -->
  <defs><clipPath id="shapeClip"><path d="M 36 15 H 64 V 36 H 85 V 64 H 64 V 85 H 36 V 64 H 15 V 36 H 36 Z"/></clipPath></defs>
  <path d="M 36 15 H 64 V 36 H 85 V 64 H 64 V 85 H 36 V 64 H 15 V 36 H 36 Z" fill="none" stroke-width="2"  fill-rule="evenodd" />
  <g clip-path="url(#shapeClip)">
  <path d="M 45.33 38.33 L 54.67 38.33 L 54.67 45.33 L 61.67 45.33 L 61.67 54.67 L 54.67 54.67 L 54.67 61.67 L 45.33 61.67 L 45.33 54.67 L 38.33 54.67 L 38.33 45.33 L 45.33 45.33 Z" fill="none" stroke="none" fill-rule="evenodd"/>
  <path d="M 40.67 26.67 L 59.33 26.67 L 59.33 40.67 L 73.33 40.67 L 73.33 59.33 L 59.33 59.33 L 59.33 73.33 L 40.67 73.33 L 40.67 59.33 L 26.67 59.33 L 26.67 40.67 L 40.67 40.67 Z M 45.33 38.33 L 54.67 38.33 L 54.67 45.33 L 61.67 45.33 L 61.67 54.67 L 54.67 54.67 L 54.67 61.67 L 45.33 61.67 L 45.33 54.67 L 38.33 54.67 L 38.33 45.33 L 45.33 45.33 Z" fill="#808080" stroke="none" fill-rule="evenodd"/>
  <path d="M 36.00 15.00 L 64.00 15.00 L 64.00 36.00 L 85.00 36.00 L 85.00 64.00 L 64.00 64.00 L 64.00 85.00 L 36.00 85.00 L 36.00 64.00 L 15.00 64.00 L 15.00 36.00 L 36.00 36.00 Z M 40.67 26.67 L 59.33 26.67 L 59.33 40.67 L 73.33 40.67 L 73.33 59.33 L 59.33 59.33 L 59.33 73.33 L 40.67 73.33 L 40.67 59.33 L 26.67 59.33 L 26.67 40.67 L 40.67 40.67 Z" fill="none" stroke="none" fill-rule="evenodd"/>
  </g>
  <path d="M 36 15 H 64 V 36 H 85 V 64 H 64 V 85 H 36 V 64 H 15 V 36 H 36 Z" fill="none" stroke-width="2"  fill-rule="evenodd" />
  <g clip-path="url(#shapeClip)">
  <line x1="45.33" y1="38.33" x2="54.67" y2="38.33" stroke="#000" stroke-width="0.8" stroke-linecap="round"/>
  <line x1="54.67" y1="38.33" x2="54.67" y2="45.33" stroke="#000" stroke-width="0.8" stroke-linecap="round"/>
  <line x1="54.67" y1="45.33" x2="61.67" y2="45.33" stroke="#000" stroke-width="0.8" stroke-linecap="round"/>
  <line x1="61.67" y1="45.33" x2="61.67" y2="54.67" stroke="#000" stroke-width="0.8" stroke-linecap="round"/>
  <line x1="61.67" y1="54.67" x2="54.67" y2="54.67" stroke="#000" stroke-width="0.8" stroke-linecap="round"/>
  <line x1="54.67" y1="54.67" x2="54.67" y2="61.67" stroke="#000" stroke-width="0.8" stroke-linecap="round"/>
  <line x1="54.67" y1="61.67" x2="45.33" y2="61.67" stroke="#000" stroke-width="0.8" stroke-linecap="round"/>
  <line x1="45.33" y1="61.67" x2="45.33" y2="54.67" stroke="#000" stroke-width="0.8" stroke-linecap="round"/>
  <line x1="45.33" y1="54.67" x2="38.33" y2="54.67" stroke="#000" stroke-width="0.8" stroke-linecap="round"/>
  <line x1="38.33" y1="54.67" x2="38.33" y2="45.33" stroke="#000" stroke-width="0.8" stroke-linecap="round"/>
  <line x1="38.33" y1="45.33" x2="45.33" y2="45.33" stroke="#000" stroke-width="0.8" stroke-linecap="round"/>
  <line x1="45.33" y1="45.33" x2="45.33" y2="38.33" stroke="#000" stroke-width="0.8" stroke-linecap="round"/>
  <line x1="40.67" y1="26.67" x2="59.33" y2="26.67" stroke="#000" stroke-width="0.8" stroke-linecap="round"/>
  <line x1="59.33" y1="26.67" x2="59.33" y2="40.67" stroke="#000" stroke-width="0.8" stroke-linecap="round"/>
  <line x1="59.33" y1="40.67" x2="73.33" y2="40.67" stroke="#000" stroke-width="0.8" stroke-linecap="round"/>
  <line x1="73.33" y1="40.67" x2="73.33" y2="59.33" stroke="#000" stroke-width="0.8" stroke-linecap="round"/>
  <line x1="73.33" y1="59.33" x2="59.33" y2="59.33" stroke="#000" stroke-width="0.8" stroke-linecap="round"/>
  <line x1="59.33" y1="59.33" x2="59.33" y2="73.33" stroke="#000" stroke-width="0.8" stroke-linecap="round"/>
  <line x1="59.33" y1="73.33" x2="40.67" y2="73.33" stroke="#000" stroke-width="0.8" stroke-linecap="round"/>
  <line x1="40.67" y1="73.33" x2="40.67" y2="59.33" stroke="#000" stroke-width="0.8" stroke-linecap="round"/>
  <line x1="40.67" y1="59.33" x2="26.67" y2="59.33" stroke="#000" stroke-width="0.8" stroke-linecap="round"/>
  <line x1="26.67" y1="59.33" x2="26.67" y2="40.67" stroke="#000" stroke-width="0.8" stroke-linecap="round"/>
  <line x1="26.67" y1="40.67" x2="40.67" y2="40.67" stroke="#000" stroke-width="0.8" stroke-linecap="round"/>
  <line x1="40.67" y1="40.67" x2="40.67" y2="26.67" stroke="#000" stroke-width="0.8" stroke-linecap="round"/>
  </g>
</svg>