<svg xmlns="http://www.w3.org/2000/svg" viewBox="0 0 100 100" fill="none" stroke="#000" stroke-linecap="round" stroke-linejoin="round">
  <!-- heart container, solid, fill; 0 none motifs -->
  <defs><clipPath id="shapeClip"><path d="M50 30 C50 10 15 10 15 40 C15 70 50 90 50 90 C50 90 85 70 85 40 C85 10 50 10 50 30 Z" fill="none" stroke-width="2"/></clipPath></defs>
  <path d="M50 30 C50 10 15 10 15 40 C15 70 50 90 50 90 C50 90 85 70 85 40 C85 10 50 10 50 30 Z" fill="none" stroke-width="2"  />
  <g clip-path="url(#shapeClip)">
  <path d="M 50.00 30.00 L 50.00 30.00 L 55.47 18.91 L 67.50 16.25 L 79.53 22.97 L 79.68 23.44 L 30.07 73.06 L 20.47 60.47 L 15.00 40.00 L 20.47 22.97 L 32.50 16.25 L 44.53 18.91 L 50.00 30.00 Z" fill="none" stroke="none"/>
  <path d="M 79.68 23.44 L 85.00 40.00 L 79.53 60.47 L 67.50 76.25 L 55.47 86.41 L 50.00 90.00 L 44.53 86.41 L 32.50 76.25 L 30.07 73.06 Z" fill="#808080" stroke="none"/>
  </g>
  <path d="M50 30 C50 10 15 10 15 40 C15 70 50 90 50 90 C50 90 85 70 85 40 C85 10 50 10 50 30 Z" fill="none" stroke-width="2"  />
  <g clip-path="url(#shapeClip)">
  <line x1="15.00" y1="88.12" x2="85.00" y2="18.12" stroke="#000" stroke-width="0.8" stroke-linecap="round"/>
  </g>
</svg>