<svg xmlns="http://www.w3.org/2000/svg" viewBox="0 0 100 100" fill="none" stroke="#000" stroke-linecap="round" stroke-linejoin="round">
  <!-- cross container, solid, fill; 0 none motifs -->
  <defs><clipPath id="shapeClip"><path d="M 36 15 H 64 V 36 H 85 V 64 H 64 V 85 H 36 V 64 H 15 V 36 H 36 Z"/></clipPath></defs>
  <path d="M 36 15 H 64 V 36 H 85 V 64 H 64 V 85 H 36 V 64 H 15 V 36 H 36 Z" fill="none" stroke-width="2"  fill-rule="evenodd" />
  <g clip-path="url(#shapeClip)">
  <path d="M 36.00 15.00 L 50.00 15.00 L 50.00 85.00 L 36.00 85.00 L 36.00 64.00 L 15.00 64.00 L 15.00 36.00 L 36.00 36.00 Z" fill="#808080" stroke="none"/>
  <path d="M 50.00 15.00 L 64.00 15.00 L 64.00 36.00 L 85.00 36.00 L 85.00 64.00 L 64.00 64.00 L 64.00 85.00 L 50.00 85.00 Z" fill="none" stroke="none"/>
  </g>
  <path d="M 36 15 H 64 V 36 H 85 V 64 H 64 V 85 H 36 V 64 H 15 V 36 H 36 Z" fill="none" stroke-width="2"  fill-rule="evenodd" />
  <g clip-path="url(#shapeClip)">
  <line x1="50.00" y1="15.00" x2="50.00" y2="85.00" stroke="#000" stroke-width="0.8" stroke-linecap="round"/>
  </g>
</svg>