<svg xmlns="http://www.w3.org/2000/svg" viewBox="0 0 100 100" fill="none" stroke="#000" stroke-linecap="round" stroke-linejoin="round">
  <!-- octagon container, solid, fill; 0 none motifs -->
  <defs><clipPath id="shapeClip"><path d="M 65.31 13.04 L 86.96 34.69 L 86.96 65.31 L 65.31 86.96 L 34.69 86.96 L 13.04 65.31 L 13.04 34.69 L 34.69 13.04 Z"/></clipPath></defs>
  <path d="M 65.31 13.04 L 86.96 34.69 L 86.96 65.31 L 65.31 86.96 L 34.69 86.96 L 13.04 65.31 L 13.04 34.69 L 34.69 13.04 Z" fill="none" stroke-width="2"  />
  <g clip-path="url(#shapeClip)">
  <path d="M 65.31 13.04 L 76.13 23.87 L 23.87 76.13 L 13.04 65.31 L 13.04 34.69 L 34.69 13.04 Z" fill="#808080" stroke="none"/>
  <path d="M 76.13 23.87 L 86.96 34.69 L 86.96 65.31 L 65.31 86.96 L 34.69 86.96 L 23.87 76.13 Z" fill="none" stroke="none"/>
  </g>
  <path d="M 65.31 13.04 L 86.96 34.69 L 86.96 65.31 L 65.31 86.96 L 34.69 86.96 L 13.04 65.31 L 13.04 34.69 L 34.69 13.04 Z" fill="none" stroke-width="2"  />
  <g clip-path="url(#shapeClip)">
  <line x1="13.04" y1="86.96" x2="86.96" y2="13.04" stroke="#000" stroke-width="0.8" stroke-linecap="round"/>
  </g>
</svg>