<svg xmlns="http://www.w3.org/2000/svg" viewBox="0 0 100 100" fill="none" stroke="#000" stroke-linecap="round" stroke-linejoin="round">
  <!-- diamond container, solid, fill; 0 none motifs -->
  <defs><clipPath id="shapeClip"><path d="M50 5 Q50 50 95 50 Q50 50 50 95 Q50 50 5 50 Q50 50 50 5" fill="none" stroke-width="2"/></clipPath></defs>
  <path d="M50 5 Q50 50 95 50 Q50 50 50 95 Q50 50 5 50 Q50 50 50 5" fill="none" stroke-width="2"  />
  <g clip-path="url(#shapeClip)">
  <path d="M 50.00 5.00 L 55.00 30.00 L 70.00 45.00 L 95.00 50.00 L 70.00 55.00 L 62.50 62.50 L 37.50 37.50 L 45.00 30.00 L 50.00 5.00 Z" fill="#808080" stroke="none"/>
  <path d="M 62.50 62.50 L 55.00 70.00 L 50.00 95.00 L 45.00 70.00 L 30.00 55.00 L 5.00 50.00 L 30.00 45.00 L 37.50 37.50 Z" fill="none" stroke="none"/>
  </g>
  <path d="M50 5 Q50 50 95 50 Q50 50 50 95 Q50 50 5 50 Q50 50 50 5" fill="none" stroke-width="2"  />
  <g clip-path="url(#shapeClip)">
  <line x1="5.00" y1="5.00" x2="95.00" y2="95.00" stroke="#000" stroke-width="0.8" stroke-linecap="round"/>
  </g>
</svg>