<svg xmlns="http://www.w3.org/2000/svg" viewBox="0 0 100 100" fill="none" stroke="#000" stroke-linecap="round" stroke-linejoin="round">
  <!-- cross container, solid, fill; 0 none motifs -->
  <defs><clipPath id="shapeClip"><path d="M 36 15 H 64 V 36 H 85 V 64 H 64 V 85 H 36 V 64 H 15 V 36 H 36 Z"/></clipPath></defs>
  <path d="M 36 15 H 64 V 36 H 85 V 64 H 64 V 85 H 36 V 64 H 15 V 36 H 36 Z" fill="none" stroke-width="2"  fill-rule="evenodd" />
  <g clip-path="url(#shapeClip)">
  <path d="M 0.00 0.00 L 50.00 0.00 L 50.00 50.00 L 0.00 50.00 Z" fill="none" stroke="none"/>
  <path d="M 50.00 0.00 L 100.00 0.00 L 100.00 50.00 L 50.00 50.00 Z" fill="#808080" stroke="none"/>
  <path d="M 50.00 50.00 L 100.00 50.00 L 100.00 100.00 L 50.00 100.00 Z" fill="none" stroke="none"/>
  <path d="M 0.00 50.00 L 50.00 50.00 L 50.00 100.00 L 0.00 100.00 Z" fill="#808080" stroke="none"/>
  </g>
  <path d="M 36 15 H 64 V 36 H 85 V 64 H 64 V 85 H 36 V 64 H 15 V 36 H 36 Z" fill="none" stroke-width="2"  fill-rule="evenodd" />
  <g clip-path="url(#shapeClip)">
  <line x1="50.00" y1="0.00" x2="50.00" y2="100.00" stroke="#000" stroke-width="0.8" stroke-linecap="round"/>
  <line x1="0.00" y1="50.00" x2="100.00" y2="50.00" stroke="#000" stroke-width="0.8" stroke-linecap="round"/>
  <line x1="0.00" y1="50.00" x2="100.00" y2="50.00" stroke="#000" stroke-width="0.8" stroke-linecap="round"/>
  <line x1="50.00" y1="0.00" x2="50.00" y2="100.00" stroke="#000" stroke-width="0.8" stroke-linecap="round"/>
  </g>
</svg>