<svg xmlns="http://www.w3.org/2000/svg" viewBox="0 0 100 100" fill="none" stroke="#000" stroke-linecap="round" stroke-linejoin="round">
  <!-- arrow container, solid, fill; 0 none motifs -->
  <defs><clipPath id="shapeClip"><path d="M 15 25 L 35 25 L 35 15 L 85 50 L 35 85 L 35 75 L 15 75 Z"/></clipPath></defs>
  <path d="M 15 25 L 35 25 L 35 15 L 85 50 L 35 85 L 35 75 L 15 75 Z" fill="none" stroke-width="2"  />
  <g clip-path="url(#shapeClip)">
  <path d="M 0.00 0.00 L 41.97 0.00 L 41.97 50.00 L 0.00 50.00 Z" fill="none" stroke="none"/>
  <path d="M 41.97 0.00 L 100.00 0.00 L 100.00 50.00 L 41.97 50.00 Z" fill="#808080" stroke="none"/>
  <path d="M 41.97 50.00 L 100.00 50.00 L 100.00 100.00 L 41.97 100.00 Z" fill="none" stroke="none"/>
  <path d="M 0.00 50.00 L 41.97 50.00 L 41.97 100.00 L 0.00 100.00 Z" fill="#808080" stroke="none"/>
  </g>
  <path d="M 15 25 L 35 25 L 35 15 L 85 50 L 35 85 L 35 75 L 15 75 Z" fill="none" stroke-width="2"  />
  <g clip-path="url(#shapeClip)">
  <line x1="41.97" y1="0.00" x2="41.97" y2="100.00" stroke="#000" stroke-width="0.8" stroke-linecap="round"/>
  <line x1="0.00" y1="50.00" x2="100.00" y2="50.00" stroke="#000" stroke-width="0.8" stroke-linecap="round"/>
  <line x1="0.00" y1="50.00" x2="100.00" y2="50.00" stroke="#000" stroke-width="0.8" stroke-linecap="round"/>
  <line x1="41.97" y1="0.00" x2="41.97" y2="100.00" stroke="#000" stroke-width="0.8" stroke-linecap="round"/>
  </g>
</svg>